G04 #@! TF.GenerationSoftware,KiCad,Pcbnew,8.0.3*
G04 #@! TF.CreationDate,2024-07-07T19:52:19-07:00*
G04 #@! TF.ProjectId,T568A_to_RJ11_adapter,54353638-415f-4746-9f5f-524a31315f61,1*
G04 #@! TF.SameCoordinates,Original*
G04 #@! TF.FileFunction,Legend,Top*
G04 #@! TF.FilePolarity,Positive*
%FSLAX46Y46*%
G04 Gerber Fmt 4.6, Leading zero omitted, Abs format (unit mm)*
G04 Created by KiCad (PCBNEW 8.0.3) date 2024-07-07 19:52:19*
%MOMM*%
%LPD*%
G01*
G04 APERTURE LIST*
%ADD10C,0.150000*%
%ADD11C,0.200000*%
%ADD12C,0.120000*%
%ADD13C,0.000000*%
G04 APERTURE END LIST*
D10*
X100750819Y-82700030D02*
X100750819Y-83176220D01*
X100750819Y-83176220D02*
X99750819Y-83176220D01*
X100750819Y-81842887D02*
X100750819Y-82414315D01*
X100750819Y-82128601D02*
X99750819Y-82128601D01*
X99750819Y-82128601D02*
X99893676Y-82223839D01*
X99893676Y-82223839D02*
X99988914Y-82319077D01*
X99988914Y-82319077D02*
X100036533Y-82414315D01*
X99750819Y-80795267D02*
X99750819Y-80223839D01*
X100750819Y-80509553D02*
X99750819Y-80509553D01*
X100750819Y-78557172D02*
X100274628Y-78890505D01*
X100750819Y-79128600D02*
X99750819Y-79128600D01*
X99750819Y-79128600D02*
X99750819Y-78747648D01*
X99750819Y-78747648D02*
X99798438Y-78652410D01*
X99798438Y-78652410D02*
X99846057Y-78604791D01*
X99846057Y-78604791D02*
X99941295Y-78557172D01*
X99941295Y-78557172D02*
X100084152Y-78557172D01*
X100084152Y-78557172D02*
X100179390Y-78604791D01*
X100179390Y-78604791D02*
X100227009Y-78652410D01*
X100227009Y-78652410D02*
X100274628Y-78747648D01*
X100274628Y-78747648D02*
X100274628Y-79128600D01*
X100750819Y-126515030D02*
X100750819Y-126991220D01*
X100750819Y-126991220D02*
X99750819Y-126991220D01*
X100084152Y-125753125D02*
X100750819Y-125753125D01*
X99703200Y-125991220D02*
X100417485Y-126229315D01*
X100417485Y-126229315D02*
X100417485Y-125610268D01*
X99750819Y-124610267D02*
X99750819Y-124038839D01*
X100750819Y-124324553D02*
X99750819Y-124324553D01*
X100750819Y-122372172D02*
X100274628Y-122705505D01*
X100750819Y-122943600D02*
X99750819Y-122943600D01*
X99750819Y-122943600D02*
X99750819Y-122562648D01*
X99750819Y-122562648D02*
X99798438Y-122467410D01*
X99798438Y-122467410D02*
X99846057Y-122419791D01*
X99846057Y-122419791D02*
X99941295Y-122372172D01*
X99941295Y-122372172D02*
X100084152Y-122372172D01*
X100084152Y-122372172D02*
X100179390Y-122419791D01*
X100179390Y-122419791D02*
X100227009Y-122467410D01*
X100227009Y-122467410D02*
X100274628Y-122562648D01*
X100274628Y-122562648D02*
X100274628Y-122943600D01*
D11*
X107491387Y-105752715D02*
X107491387Y-105181287D01*
X108491387Y-105467001D02*
X107491387Y-105467001D01*
X108110434Y-104847953D02*
X108110434Y-104086049D01*
X107491387Y-103133668D02*
X107491387Y-103609858D01*
X107491387Y-103609858D02*
X107967577Y-103657477D01*
X107967577Y-103657477D02*
X107919958Y-103609858D01*
X107919958Y-103609858D02*
X107872339Y-103514620D01*
X107872339Y-103514620D02*
X107872339Y-103276525D01*
X107872339Y-103276525D02*
X107919958Y-103181287D01*
X107919958Y-103181287D02*
X107967577Y-103133668D01*
X107967577Y-103133668D02*
X108062815Y-103086049D01*
X108062815Y-103086049D02*
X108300910Y-103086049D01*
X108300910Y-103086049D02*
X108396148Y-103133668D01*
X108396148Y-103133668D02*
X108443768Y-103181287D01*
X108443768Y-103181287D02*
X108491387Y-103276525D01*
X108491387Y-103276525D02*
X108491387Y-103514620D01*
X108491387Y-103514620D02*
X108443768Y-103609858D01*
X108443768Y-103609858D02*
X108396148Y-103657477D01*
X107491387Y-102228906D02*
X107491387Y-102419382D01*
X107491387Y-102419382D02*
X107539006Y-102514620D01*
X107539006Y-102514620D02*
X107586625Y-102562239D01*
X107586625Y-102562239D02*
X107729482Y-102657477D01*
X107729482Y-102657477D02*
X107919958Y-102705096D01*
X107919958Y-102705096D02*
X108300910Y-102705096D01*
X108300910Y-102705096D02*
X108396148Y-102657477D01*
X108396148Y-102657477D02*
X108443768Y-102609858D01*
X108443768Y-102609858D02*
X108491387Y-102514620D01*
X108491387Y-102514620D02*
X108491387Y-102324144D01*
X108491387Y-102324144D02*
X108443768Y-102228906D01*
X108443768Y-102228906D02*
X108396148Y-102181287D01*
X108396148Y-102181287D02*
X108300910Y-102133668D01*
X108300910Y-102133668D02*
X108062815Y-102133668D01*
X108062815Y-102133668D02*
X107967577Y-102181287D01*
X107967577Y-102181287D02*
X107919958Y-102228906D01*
X107919958Y-102228906D02*
X107872339Y-102324144D01*
X107872339Y-102324144D02*
X107872339Y-102514620D01*
X107872339Y-102514620D02*
X107919958Y-102609858D01*
X107919958Y-102609858D02*
X107967577Y-102657477D01*
X107967577Y-102657477D02*
X108062815Y-102705096D01*
X107919958Y-101562239D02*
X107872339Y-101657477D01*
X107872339Y-101657477D02*
X107824720Y-101705096D01*
X107824720Y-101705096D02*
X107729482Y-101752715D01*
X107729482Y-101752715D02*
X107681863Y-101752715D01*
X107681863Y-101752715D02*
X107586625Y-101705096D01*
X107586625Y-101705096D02*
X107539006Y-101657477D01*
X107539006Y-101657477D02*
X107491387Y-101562239D01*
X107491387Y-101562239D02*
X107491387Y-101371763D01*
X107491387Y-101371763D02*
X107539006Y-101276525D01*
X107539006Y-101276525D02*
X107586625Y-101228906D01*
X107586625Y-101228906D02*
X107681863Y-101181287D01*
X107681863Y-101181287D02*
X107729482Y-101181287D01*
X107729482Y-101181287D02*
X107824720Y-101228906D01*
X107824720Y-101228906D02*
X107872339Y-101276525D01*
X107872339Y-101276525D02*
X107919958Y-101371763D01*
X107919958Y-101371763D02*
X107919958Y-101562239D01*
X107919958Y-101562239D02*
X107967577Y-101657477D01*
X107967577Y-101657477D02*
X108015196Y-101705096D01*
X108015196Y-101705096D02*
X108110434Y-101752715D01*
X108110434Y-101752715D02*
X108300910Y-101752715D01*
X108300910Y-101752715D02*
X108396148Y-101705096D01*
X108396148Y-101705096D02*
X108443768Y-101657477D01*
X108443768Y-101657477D02*
X108491387Y-101562239D01*
X108491387Y-101562239D02*
X108491387Y-101371763D01*
X108491387Y-101371763D02*
X108443768Y-101276525D01*
X108443768Y-101276525D02*
X108396148Y-101228906D01*
X108396148Y-101228906D02*
X108300910Y-101181287D01*
X108300910Y-101181287D02*
X108110434Y-101181287D01*
X108110434Y-101181287D02*
X108015196Y-101228906D01*
X108015196Y-101228906D02*
X107967577Y-101276525D01*
X107967577Y-101276525D02*
X107919958Y-101371763D01*
X108205672Y-100800334D02*
X108205672Y-100324144D01*
X108491387Y-100895572D02*
X107491387Y-100562239D01*
X107491387Y-100562239D02*
X108491387Y-100228906D01*
X107824720Y-99276524D02*
X107824720Y-98895572D01*
X107491387Y-99133667D02*
X108348529Y-99133667D01*
X108348529Y-99133667D02*
X108443768Y-99086048D01*
X108443768Y-99086048D02*
X108491387Y-98990810D01*
X108491387Y-98990810D02*
X108491387Y-98895572D01*
X108491387Y-98419381D02*
X108443768Y-98514619D01*
X108443768Y-98514619D02*
X108396148Y-98562238D01*
X108396148Y-98562238D02*
X108300910Y-98609857D01*
X108300910Y-98609857D02*
X108015196Y-98609857D01*
X108015196Y-98609857D02*
X107919958Y-98562238D01*
X107919958Y-98562238D02*
X107872339Y-98514619D01*
X107872339Y-98514619D02*
X107824720Y-98419381D01*
X107824720Y-98419381D02*
X107824720Y-98276524D01*
X107824720Y-98276524D02*
X107872339Y-98181286D01*
X107872339Y-98181286D02*
X107919958Y-98133667D01*
X107919958Y-98133667D02*
X108015196Y-98086048D01*
X108015196Y-98086048D02*
X108300910Y-98086048D01*
X108300910Y-98086048D02*
X108396148Y-98133667D01*
X108396148Y-98133667D02*
X108443768Y-98181286D01*
X108443768Y-98181286D02*
X108491387Y-98276524D01*
X108491387Y-98276524D02*
X108491387Y-98419381D01*
X108491387Y-96324143D02*
X108015196Y-96657476D01*
X108491387Y-96895571D02*
X107491387Y-96895571D01*
X107491387Y-96895571D02*
X107491387Y-96514619D01*
X107491387Y-96514619D02*
X107539006Y-96419381D01*
X107539006Y-96419381D02*
X107586625Y-96371762D01*
X107586625Y-96371762D02*
X107681863Y-96324143D01*
X107681863Y-96324143D02*
X107824720Y-96324143D01*
X107824720Y-96324143D02*
X107919958Y-96371762D01*
X107919958Y-96371762D02*
X107967577Y-96419381D01*
X107967577Y-96419381D02*
X108015196Y-96514619D01*
X108015196Y-96514619D02*
X108015196Y-96895571D01*
X107491387Y-95609857D02*
X108205672Y-95609857D01*
X108205672Y-95609857D02*
X108348529Y-95657476D01*
X108348529Y-95657476D02*
X108443768Y-95752714D01*
X108443768Y-95752714D02*
X108491387Y-95895571D01*
X108491387Y-95895571D02*
X108491387Y-95990809D01*
X108491387Y-94609857D02*
X108491387Y-95181285D01*
X108491387Y-94895571D02*
X107491387Y-94895571D01*
X107491387Y-94895571D02*
X107634244Y-94990809D01*
X107634244Y-94990809D02*
X107729482Y-95086047D01*
X107729482Y-95086047D02*
X107777101Y-95181285D01*
X108491387Y-93657476D02*
X108491387Y-94228904D01*
X108491387Y-93943190D02*
X107491387Y-93943190D01*
X107491387Y-93943190D02*
X107634244Y-94038428D01*
X107634244Y-94038428D02*
X107729482Y-94133666D01*
X107729482Y-94133666D02*
X107777101Y-94228904D01*
X108205672Y-92514618D02*
X108205672Y-92038428D01*
X108491387Y-92609856D02*
X107491387Y-92276523D01*
X107491387Y-92276523D02*
X108491387Y-91943190D01*
X108491387Y-91181285D02*
X107491387Y-91181285D01*
X108443768Y-91181285D02*
X108491387Y-91276523D01*
X108491387Y-91276523D02*
X108491387Y-91466999D01*
X108491387Y-91466999D02*
X108443768Y-91562237D01*
X108443768Y-91562237D02*
X108396148Y-91609856D01*
X108396148Y-91609856D02*
X108300910Y-91657475D01*
X108300910Y-91657475D02*
X108015196Y-91657475D01*
X108015196Y-91657475D02*
X107919958Y-91609856D01*
X107919958Y-91609856D02*
X107872339Y-91562237D01*
X107872339Y-91562237D02*
X107824720Y-91466999D01*
X107824720Y-91466999D02*
X107824720Y-91276523D01*
X107824720Y-91276523D02*
X107872339Y-91181285D01*
X108491387Y-90276523D02*
X107967577Y-90276523D01*
X107967577Y-90276523D02*
X107872339Y-90324142D01*
X107872339Y-90324142D02*
X107824720Y-90419380D01*
X107824720Y-90419380D02*
X107824720Y-90609856D01*
X107824720Y-90609856D02*
X107872339Y-90705094D01*
X108443768Y-90276523D02*
X108491387Y-90371761D01*
X108491387Y-90371761D02*
X108491387Y-90609856D01*
X108491387Y-90609856D02*
X108443768Y-90705094D01*
X108443768Y-90705094D02*
X108348529Y-90752713D01*
X108348529Y-90752713D02*
X108253291Y-90752713D01*
X108253291Y-90752713D02*
X108158053Y-90705094D01*
X108158053Y-90705094D02*
X108110434Y-90609856D01*
X108110434Y-90609856D02*
X108110434Y-90371761D01*
X108110434Y-90371761D02*
X108062815Y-90276523D01*
X107824720Y-89800332D02*
X108824720Y-89800332D01*
X107872339Y-89800332D02*
X107824720Y-89705094D01*
X107824720Y-89705094D02*
X107824720Y-89514618D01*
X107824720Y-89514618D02*
X107872339Y-89419380D01*
X107872339Y-89419380D02*
X107919958Y-89371761D01*
X107919958Y-89371761D02*
X108015196Y-89324142D01*
X108015196Y-89324142D02*
X108300910Y-89324142D01*
X108300910Y-89324142D02*
X108396148Y-89371761D01*
X108396148Y-89371761D02*
X108443768Y-89419380D01*
X108443768Y-89419380D02*
X108491387Y-89514618D01*
X108491387Y-89514618D02*
X108491387Y-89705094D01*
X108491387Y-89705094D02*
X108443768Y-89800332D01*
X107824720Y-89038427D02*
X107824720Y-88657475D01*
X107491387Y-88895570D02*
X108348529Y-88895570D01*
X108348529Y-88895570D02*
X108443768Y-88847951D01*
X108443768Y-88847951D02*
X108491387Y-88752713D01*
X108491387Y-88752713D02*
X108491387Y-88657475D01*
X108443768Y-87943189D02*
X108491387Y-88038427D01*
X108491387Y-88038427D02*
X108491387Y-88228903D01*
X108491387Y-88228903D02*
X108443768Y-88324141D01*
X108443768Y-88324141D02*
X108348529Y-88371760D01*
X108348529Y-88371760D02*
X107967577Y-88371760D01*
X107967577Y-88371760D02*
X107872339Y-88324141D01*
X107872339Y-88324141D02*
X107824720Y-88228903D01*
X107824720Y-88228903D02*
X107824720Y-88038427D01*
X107824720Y-88038427D02*
X107872339Y-87943189D01*
X107872339Y-87943189D02*
X107967577Y-87895570D01*
X107967577Y-87895570D02*
X108062815Y-87895570D01*
X108062815Y-87895570D02*
X108158053Y-88371760D01*
X108491387Y-87466998D02*
X107824720Y-87466998D01*
X108015196Y-87466998D02*
X107919958Y-87419379D01*
X107919958Y-87419379D02*
X107872339Y-87371760D01*
X107872339Y-87371760D02*
X107824720Y-87276522D01*
X107824720Y-87276522D02*
X107824720Y-87181284D01*
X110101331Y-99014618D02*
X109101331Y-99014618D01*
X110053712Y-98586047D02*
X110101331Y-98490809D01*
X110101331Y-98490809D02*
X110101331Y-98300333D01*
X110101331Y-98300333D02*
X110053712Y-98205095D01*
X110053712Y-98205095D02*
X109958473Y-98157476D01*
X109958473Y-98157476D02*
X109910854Y-98157476D01*
X109910854Y-98157476D02*
X109815616Y-98205095D01*
X109815616Y-98205095D02*
X109767997Y-98300333D01*
X109767997Y-98300333D02*
X109767997Y-98443190D01*
X109767997Y-98443190D02*
X109720378Y-98538428D01*
X109720378Y-98538428D02*
X109625140Y-98586047D01*
X109625140Y-98586047D02*
X109577521Y-98586047D01*
X109577521Y-98586047D02*
X109482283Y-98538428D01*
X109482283Y-98538428D02*
X109434664Y-98443190D01*
X109434664Y-98443190D02*
X109434664Y-98300333D01*
X109434664Y-98300333D02*
X109482283Y-98205095D01*
X110053712Y-97776523D02*
X110101331Y-97681285D01*
X110101331Y-97681285D02*
X110101331Y-97490809D01*
X110101331Y-97490809D02*
X110053712Y-97395571D01*
X110053712Y-97395571D02*
X109958473Y-97347952D01*
X109958473Y-97347952D02*
X109910854Y-97347952D01*
X109910854Y-97347952D02*
X109815616Y-97395571D01*
X109815616Y-97395571D02*
X109767997Y-97490809D01*
X109767997Y-97490809D02*
X109767997Y-97633666D01*
X109767997Y-97633666D02*
X109720378Y-97728904D01*
X109720378Y-97728904D02*
X109625140Y-97776523D01*
X109625140Y-97776523D02*
X109577521Y-97776523D01*
X109577521Y-97776523D02*
X109482283Y-97728904D01*
X109482283Y-97728904D02*
X109434664Y-97633666D01*
X109434664Y-97633666D02*
X109434664Y-97490809D01*
X109434664Y-97490809D02*
X109482283Y-97395571D01*
X109434664Y-96490809D02*
X110101331Y-96490809D01*
X109434664Y-96919380D02*
X109958473Y-96919380D01*
X109958473Y-96919380D02*
X110053712Y-96871761D01*
X110053712Y-96871761D02*
X110101331Y-96776523D01*
X110101331Y-96776523D02*
X110101331Y-96633666D01*
X110101331Y-96633666D02*
X110053712Y-96538428D01*
X110053712Y-96538428D02*
X110006092Y-96490809D01*
X110053712Y-95633666D02*
X110101331Y-95728904D01*
X110101331Y-95728904D02*
X110101331Y-95919380D01*
X110101331Y-95919380D02*
X110053712Y-96014618D01*
X110053712Y-96014618D02*
X109958473Y-96062237D01*
X109958473Y-96062237D02*
X109577521Y-96062237D01*
X109577521Y-96062237D02*
X109482283Y-96014618D01*
X109482283Y-96014618D02*
X109434664Y-95919380D01*
X109434664Y-95919380D02*
X109434664Y-95728904D01*
X109434664Y-95728904D02*
X109482283Y-95633666D01*
X109482283Y-95633666D02*
X109577521Y-95586047D01*
X109577521Y-95586047D02*
X109672759Y-95586047D01*
X109672759Y-95586047D02*
X109767997Y-96062237D01*
X110101331Y-93871761D02*
X110101331Y-94443189D01*
X110101331Y-94157475D02*
X109101331Y-94157475D01*
X109101331Y-94157475D02*
X109244188Y-94252713D01*
X109244188Y-94252713D02*
X109339426Y-94347951D01*
X109339426Y-94347951D02*
X109387045Y-94443189D01*
X110806513Y-101324142D02*
X110758894Y-101276523D01*
X110758894Y-101276523D02*
X110711275Y-101181285D01*
X110711275Y-101181285D02*
X110711275Y-100943190D01*
X110711275Y-100943190D02*
X110758894Y-100847952D01*
X110758894Y-100847952D02*
X110806513Y-100800333D01*
X110806513Y-100800333D02*
X110901751Y-100752714D01*
X110901751Y-100752714D02*
X110996989Y-100752714D01*
X110996989Y-100752714D02*
X111139846Y-100800333D01*
X111139846Y-100800333D02*
X111711275Y-101371761D01*
X111711275Y-101371761D02*
X111711275Y-100752714D01*
X110711275Y-100133666D02*
X110711275Y-100038428D01*
X110711275Y-100038428D02*
X110758894Y-99943190D01*
X110758894Y-99943190D02*
X110806513Y-99895571D01*
X110806513Y-99895571D02*
X110901751Y-99847952D01*
X110901751Y-99847952D02*
X111092227Y-99800333D01*
X111092227Y-99800333D02*
X111330322Y-99800333D01*
X111330322Y-99800333D02*
X111520798Y-99847952D01*
X111520798Y-99847952D02*
X111616036Y-99895571D01*
X111616036Y-99895571D02*
X111663656Y-99943190D01*
X111663656Y-99943190D02*
X111711275Y-100038428D01*
X111711275Y-100038428D02*
X111711275Y-100133666D01*
X111711275Y-100133666D02*
X111663656Y-100228904D01*
X111663656Y-100228904D02*
X111616036Y-100276523D01*
X111616036Y-100276523D02*
X111520798Y-100324142D01*
X111520798Y-100324142D02*
X111330322Y-100371761D01*
X111330322Y-100371761D02*
X111092227Y-100371761D01*
X111092227Y-100371761D02*
X110901751Y-100324142D01*
X110901751Y-100324142D02*
X110806513Y-100276523D01*
X110806513Y-100276523D02*
X110758894Y-100228904D01*
X110758894Y-100228904D02*
X110711275Y-100133666D01*
X110806513Y-99419380D02*
X110758894Y-99371761D01*
X110758894Y-99371761D02*
X110711275Y-99276523D01*
X110711275Y-99276523D02*
X110711275Y-99038428D01*
X110711275Y-99038428D02*
X110758894Y-98943190D01*
X110758894Y-98943190D02*
X110806513Y-98895571D01*
X110806513Y-98895571D02*
X110901751Y-98847952D01*
X110901751Y-98847952D02*
X110996989Y-98847952D01*
X110996989Y-98847952D02*
X111139846Y-98895571D01*
X111139846Y-98895571D02*
X111711275Y-99466999D01*
X111711275Y-99466999D02*
X111711275Y-98847952D01*
X111044608Y-97990809D02*
X111711275Y-97990809D01*
X110663656Y-98228904D02*
X111377941Y-98466999D01*
X111377941Y-98466999D02*
X111377941Y-97847952D01*
X111330322Y-97466999D02*
X111330322Y-96705095D01*
X110711275Y-96038428D02*
X110711275Y-95943190D01*
X110711275Y-95943190D02*
X110758894Y-95847952D01*
X110758894Y-95847952D02*
X110806513Y-95800333D01*
X110806513Y-95800333D02*
X110901751Y-95752714D01*
X110901751Y-95752714D02*
X111092227Y-95705095D01*
X111092227Y-95705095D02*
X111330322Y-95705095D01*
X111330322Y-95705095D02*
X111520798Y-95752714D01*
X111520798Y-95752714D02*
X111616036Y-95800333D01*
X111616036Y-95800333D02*
X111663656Y-95847952D01*
X111663656Y-95847952D02*
X111711275Y-95943190D01*
X111711275Y-95943190D02*
X111711275Y-96038428D01*
X111711275Y-96038428D02*
X111663656Y-96133666D01*
X111663656Y-96133666D02*
X111616036Y-96181285D01*
X111616036Y-96181285D02*
X111520798Y-96228904D01*
X111520798Y-96228904D02*
X111330322Y-96276523D01*
X111330322Y-96276523D02*
X111092227Y-96276523D01*
X111092227Y-96276523D02*
X110901751Y-96228904D01*
X110901751Y-96228904D02*
X110806513Y-96181285D01*
X110806513Y-96181285D02*
X110758894Y-96133666D01*
X110758894Y-96133666D02*
X110711275Y-96038428D01*
X110711275Y-95371761D02*
X110711275Y-94705095D01*
X110711275Y-94705095D02*
X111711275Y-95133666D01*
X111330322Y-94324142D02*
X111330322Y-93562238D01*
X110711275Y-92895571D02*
X110711275Y-92800333D01*
X110711275Y-92800333D02*
X110758894Y-92705095D01*
X110758894Y-92705095D02*
X110806513Y-92657476D01*
X110806513Y-92657476D02*
X110901751Y-92609857D01*
X110901751Y-92609857D02*
X111092227Y-92562238D01*
X111092227Y-92562238D02*
X111330322Y-92562238D01*
X111330322Y-92562238D02*
X111520798Y-92609857D01*
X111520798Y-92609857D02*
X111616036Y-92657476D01*
X111616036Y-92657476D02*
X111663656Y-92705095D01*
X111663656Y-92705095D02*
X111711275Y-92800333D01*
X111711275Y-92800333D02*
X111711275Y-92895571D01*
X111711275Y-92895571D02*
X111663656Y-92990809D01*
X111663656Y-92990809D02*
X111616036Y-93038428D01*
X111616036Y-93038428D02*
X111520798Y-93086047D01*
X111520798Y-93086047D02*
X111330322Y-93133666D01*
X111330322Y-93133666D02*
X111092227Y-93133666D01*
X111092227Y-93133666D02*
X110901751Y-93086047D01*
X110901751Y-93086047D02*
X110806513Y-93038428D01*
X110806513Y-93038428D02*
X110758894Y-92990809D01*
X110758894Y-92990809D02*
X110711275Y-92895571D01*
X110711275Y-91657476D02*
X110711275Y-92133666D01*
X110711275Y-92133666D02*
X111187465Y-92181285D01*
X111187465Y-92181285D02*
X111139846Y-92133666D01*
X111139846Y-92133666D02*
X111092227Y-92038428D01*
X111092227Y-92038428D02*
X111092227Y-91800333D01*
X111092227Y-91800333D02*
X111139846Y-91705095D01*
X111139846Y-91705095D02*
X111187465Y-91657476D01*
X111187465Y-91657476D02*
X111282703Y-91609857D01*
X111282703Y-91609857D02*
X111520798Y-91609857D01*
X111520798Y-91609857D02*
X111616036Y-91657476D01*
X111616036Y-91657476D02*
X111663656Y-91705095D01*
X111663656Y-91705095D02*
X111711275Y-91800333D01*
X111711275Y-91800333D02*
X111711275Y-92038428D01*
X111711275Y-92038428D02*
X111663656Y-92133666D01*
X111663656Y-92133666D02*
X111616036Y-92181285D01*
X113321219Y-115728906D02*
X112321219Y-115728906D01*
X113321219Y-115300335D02*
X112797409Y-115300335D01*
X112797409Y-115300335D02*
X112702171Y-115347954D01*
X112702171Y-115347954D02*
X112654552Y-115443192D01*
X112654552Y-115443192D02*
X112654552Y-115586049D01*
X112654552Y-115586049D02*
X112702171Y-115681287D01*
X112702171Y-115681287D02*
X112749790Y-115728906D01*
X112654552Y-114967001D02*
X112654552Y-114586049D01*
X112321219Y-114824144D02*
X113178361Y-114824144D01*
X113178361Y-114824144D02*
X113273600Y-114776525D01*
X113273600Y-114776525D02*
X113321219Y-114681287D01*
X113321219Y-114681287D02*
X113321219Y-114586049D01*
X112654552Y-114395572D02*
X112654552Y-114014620D01*
X112321219Y-114252715D02*
X113178361Y-114252715D01*
X113178361Y-114252715D02*
X113273600Y-114205096D01*
X113273600Y-114205096D02*
X113321219Y-114109858D01*
X113321219Y-114109858D02*
X113321219Y-114014620D01*
X112654552Y-113681286D02*
X113654552Y-113681286D01*
X112702171Y-113681286D02*
X112654552Y-113586048D01*
X112654552Y-113586048D02*
X112654552Y-113395572D01*
X112654552Y-113395572D02*
X112702171Y-113300334D01*
X112702171Y-113300334D02*
X112749790Y-113252715D01*
X112749790Y-113252715D02*
X112845028Y-113205096D01*
X112845028Y-113205096D02*
X113130742Y-113205096D01*
X113130742Y-113205096D02*
X113225980Y-113252715D01*
X113225980Y-113252715D02*
X113273600Y-113300334D01*
X113273600Y-113300334D02*
X113321219Y-113395572D01*
X113321219Y-113395572D02*
X113321219Y-113586048D01*
X113321219Y-113586048D02*
X113273600Y-113681286D01*
X113273600Y-112824143D02*
X113321219Y-112728905D01*
X113321219Y-112728905D02*
X113321219Y-112538429D01*
X113321219Y-112538429D02*
X113273600Y-112443191D01*
X113273600Y-112443191D02*
X113178361Y-112395572D01*
X113178361Y-112395572D02*
X113130742Y-112395572D01*
X113130742Y-112395572D02*
X113035504Y-112443191D01*
X113035504Y-112443191D02*
X112987885Y-112538429D01*
X112987885Y-112538429D02*
X112987885Y-112681286D01*
X112987885Y-112681286D02*
X112940266Y-112776524D01*
X112940266Y-112776524D02*
X112845028Y-112824143D01*
X112845028Y-112824143D02*
X112797409Y-112824143D01*
X112797409Y-112824143D02*
X112702171Y-112776524D01*
X112702171Y-112776524D02*
X112654552Y-112681286D01*
X112654552Y-112681286D02*
X112654552Y-112538429D01*
X112654552Y-112538429D02*
X112702171Y-112443191D01*
X113225980Y-111967000D02*
X113273600Y-111919381D01*
X113273600Y-111919381D02*
X113321219Y-111967000D01*
X113321219Y-111967000D02*
X113273600Y-112014619D01*
X113273600Y-112014619D02*
X113225980Y-111967000D01*
X113225980Y-111967000D02*
X113321219Y-111967000D01*
X112702171Y-111967000D02*
X112749790Y-111919381D01*
X112749790Y-111919381D02*
X112797409Y-111967000D01*
X112797409Y-111967000D02*
X112749790Y-112014619D01*
X112749790Y-112014619D02*
X112702171Y-111967000D01*
X112702171Y-111967000D02*
X112797409Y-111967000D01*
X112273600Y-110776525D02*
X113559314Y-111633667D01*
X112273600Y-109728906D02*
X113559314Y-110586048D01*
X112654552Y-108967001D02*
X113464076Y-108967001D01*
X113464076Y-108967001D02*
X113559314Y-109014620D01*
X113559314Y-109014620D02*
X113606933Y-109062239D01*
X113606933Y-109062239D02*
X113654552Y-109157477D01*
X113654552Y-109157477D02*
X113654552Y-109300334D01*
X113654552Y-109300334D02*
X113606933Y-109395572D01*
X113273600Y-108967001D02*
X113321219Y-109062239D01*
X113321219Y-109062239D02*
X113321219Y-109252715D01*
X113321219Y-109252715D02*
X113273600Y-109347953D01*
X113273600Y-109347953D02*
X113225980Y-109395572D01*
X113225980Y-109395572D02*
X113130742Y-109443191D01*
X113130742Y-109443191D02*
X112845028Y-109443191D01*
X112845028Y-109443191D02*
X112749790Y-109395572D01*
X112749790Y-109395572D02*
X112702171Y-109347953D01*
X112702171Y-109347953D02*
X112654552Y-109252715D01*
X112654552Y-109252715D02*
X112654552Y-109062239D01*
X112654552Y-109062239D02*
X112702171Y-108967001D01*
X113321219Y-108490810D02*
X112654552Y-108490810D01*
X112321219Y-108490810D02*
X112368838Y-108538429D01*
X112368838Y-108538429D02*
X112416457Y-108490810D01*
X112416457Y-108490810D02*
X112368838Y-108443191D01*
X112368838Y-108443191D02*
X112321219Y-108490810D01*
X112321219Y-108490810D02*
X112416457Y-108490810D01*
X112654552Y-108157477D02*
X112654552Y-107776525D01*
X112321219Y-108014620D02*
X113178361Y-108014620D01*
X113178361Y-108014620D02*
X113273600Y-107967001D01*
X113273600Y-107967001D02*
X113321219Y-107871763D01*
X113321219Y-107871763D02*
X113321219Y-107776525D01*
X113321219Y-107443191D02*
X112321219Y-107443191D01*
X113321219Y-107014620D02*
X112797409Y-107014620D01*
X112797409Y-107014620D02*
X112702171Y-107062239D01*
X112702171Y-107062239D02*
X112654552Y-107157477D01*
X112654552Y-107157477D02*
X112654552Y-107300334D01*
X112654552Y-107300334D02*
X112702171Y-107395572D01*
X112702171Y-107395572D02*
X112749790Y-107443191D01*
X112654552Y-106109858D02*
X113321219Y-106109858D01*
X112654552Y-106538429D02*
X113178361Y-106538429D01*
X113178361Y-106538429D02*
X113273600Y-106490810D01*
X113273600Y-106490810D02*
X113321219Y-106395572D01*
X113321219Y-106395572D02*
X113321219Y-106252715D01*
X113321219Y-106252715D02*
X113273600Y-106157477D01*
X113273600Y-106157477D02*
X113225980Y-106109858D01*
X113321219Y-105633667D02*
X112321219Y-105633667D01*
X112702171Y-105633667D02*
X112654552Y-105538429D01*
X112654552Y-105538429D02*
X112654552Y-105347953D01*
X112654552Y-105347953D02*
X112702171Y-105252715D01*
X112702171Y-105252715D02*
X112749790Y-105205096D01*
X112749790Y-105205096D02*
X112845028Y-105157477D01*
X112845028Y-105157477D02*
X113130742Y-105157477D01*
X113130742Y-105157477D02*
X113225980Y-105205096D01*
X113225980Y-105205096D02*
X113273600Y-105252715D01*
X113273600Y-105252715D02*
X113321219Y-105347953D01*
X113321219Y-105347953D02*
X113321219Y-105538429D01*
X113321219Y-105538429D02*
X113273600Y-105633667D01*
X113225980Y-104728905D02*
X113273600Y-104681286D01*
X113273600Y-104681286D02*
X113321219Y-104728905D01*
X113321219Y-104728905D02*
X113273600Y-104776524D01*
X113273600Y-104776524D02*
X113225980Y-104728905D01*
X113225980Y-104728905D02*
X113321219Y-104728905D01*
X113273600Y-103824144D02*
X113321219Y-103919382D01*
X113321219Y-103919382D02*
X113321219Y-104109858D01*
X113321219Y-104109858D02*
X113273600Y-104205096D01*
X113273600Y-104205096D02*
X113225980Y-104252715D01*
X113225980Y-104252715D02*
X113130742Y-104300334D01*
X113130742Y-104300334D02*
X112845028Y-104300334D01*
X112845028Y-104300334D02*
X112749790Y-104252715D01*
X112749790Y-104252715D02*
X112702171Y-104205096D01*
X112702171Y-104205096D02*
X112654552Y-104109858D01*
X112654552Y-104109858D02*
X112654552Y-103919382D01*
X112654552Y-103919382D02*
X112702171Y-103824144D01*
X113321219Y-103252715D02*
X113273600Y-103347953D01*
X113273600Y-103347953D02*
X113225980Y-103395572D01*
X113225980Y-103395572D02*
X113130742Y-103443191D01*
X113130742Y-103443191D02*
X112845028Y-103443191D01*
X112845028Y-103443191D02*
X112749790Y-103395572D01*
X112749790Y-103395572D02*
X112702171Y-103347953D01*
X112702171Y-103347953D02*
X112654552Y-103252715D01*
X112654552Y-103252715D02*
X112654552Y-103109858D01*
X112654552Y-103109858D02*
X112702171Y-103014620D01*
X112702171Y-103014620D02*
X112749790Y-102967001D01*
X112749790Y-102967001D02*
X112845028Y-102919382D01*
X112845028Y-102919382D02*
X113130742Y-102919382D01*
X113130742Y-102919382D02*
X113225980Y-102967001D01*
X113225980Y-102967001D02*
X113273600Y-103014620D01*
X113273600Y-103014620D02*
X113321219Y-103109858D01*
X113321219Y-103109858D02*
X113321219Y-103252715D01*
X113321219Y-102490810D02*
X112654552Y-102490810D01*
X112749790Y-102490810D02*
X112702171Y-102443191D01*
X112702171Y-102443191D02*
X112654552Y-102347953D01*
X112654552Y-102347953D02*
X112654552Y-102205096D01*
X112654552Y-102205096D02*
X112702171Y-102109858D01*
X112702171Y-102109858D02*
X112797409Y-102062239D01*
X112797409Y-102062239D02*
X113321219Y-102062239D01*
X112797409Y-102062239D02*
X112702171Y-102014620D01*
X112702171Y-102014620D02*
X112654552Y-101919382D01*
X112654552Y-101919382D02*
X112654552Y-101776525D01*
X112654552Y-101776525D02*
X112702171Y-101681286D01*
X112702171Y-101681286D02*
X112797409Y-101633667D01*
X112797409Y-101633667D02*
X113321219Y-101633667D01*
X112273600Y-100443192D02*
X113559314Y-101300334D01*
X113321219Y-100109858D02*
X112321219Y-100109858D01*
X113321219Y-99681287D02*
X112797409Y-99681287D01*
X112797409Y-99681287D02*
X112702171Y-99728906D01*
X112702171Y-99728906D02*
X112654552Y-99824144D01*
X112654552Y-99824144D02*
X112654552Y-99967001D01*
X112654552Y-99967001D02*
X112702171Y-100062239D01*
X112702171Y-100062239D02*
X112749790Y-100109858D01*
X113321219Y-99205096D02*
X112321219Y-99205096D01*
X113321219Y-98776525D02*
X112797409Y-98776525D01*
X112797409Y-98776525D02*
X112702171Y-98824144D01*
X112702171Y-98824144D02*
X112654552Y-98919382D01*
X112654552Y-98919382D02*
X112654552Y-99062239D01*
X112654552Y-99062239D02*
X112702171Y-99157477D01*
X112702171Y-99157477D02*
X112749790Y-99205096D01*
X113321219Y-97871763D02*
X112797409Y-97871763D01*
X112797409Y-97871763D02*
X112702171Y-97919382D01*
X112702171Y-97919382D02*
X112654552Y-98014620D01*
X112654552Y-98014620D02*
X112654552Y-98205096D01*
X112654552Y-98205096D02*
X112702171Y-98300334D01*
X113273600Y-97871763D02*
X113321219Y-97967001D01*
X113321219Y-97967001D02*
X113321219Y-98205096D01*
X113321219Y-98205096D02*
X113273600Y-98300334D01*
X113273600Y-98300334D02*
X113178361Y-98347953D01*
X113178361Y-98347953D02*
X113083123Y-98347953D01*
X113083123Y-98347953D02*
X112987885Y-98300334D01*
X112987885Y-98300334D02*
X112940266Y-98205096D01*
X112940266Y-98205096D02*
X112940266Y-97967001D01*
X112940266Y-97967001D02*
X112892647Y-97871763D01*
X113321219Y-97395572D02*
X112654552Y-97395572D01*
X112845028Y-97395572D02*
X112749790Y-97347953D01*
X112749790Y-97347953D02*
X112702171Y-97300334D01*
X112702171Y-97300334D02*
X112654552Y-97205096D01*
X112654552Y-97205096D02*
X112654552Y-97109858D01*
X112654552Y-96919381D02*
X112654552Y-96538429D01*
X112321219Y-96776524D02*
X113178361Y-96776524D01*
X113178361Y-96776524D02*
X113273600Y-96728905D01*
X113273600Y-96728905D02*
X113321219Y-96633667D01*
X113321219Y-96633667D02*
X113321219Y-96538429D01*
X113273600Y-95824143D02*
X113321219Y-95919381D01*
X113321219Y-95919381D02*
X113321219Y-96109857D01*
X113321219Y-96109857D02*
X113273600Y-96205095D01*
X113273600Y-96205095D02*
X113178361Y-96252714D01*
X113178361Y-96252714D02*
X112797409Y-96252714D01*
X112797409Y-96252714D02*
X112702171Y-96205095D01*
X112702171Y-96205095D02*
X112654552Y-96109857D01*
X112654552Y-96109857D02*
X112654552Y-95919381D01*
X112654552Y-95919381D02*
X112702171Y-95824143D01*
X112702171Y-95824143D02*
X112797409Y-95776524D01*
X112797409Y-95776524D02*
X112892647Y-95776524D01*
X112892647Y-95776524D02*
X112987885Y-96252714D01*
X112273600Y-94633667D02*
X113559314Y-95490809D01*
X112321219Y-94443190D02*
X112321219Y-93871762D01*
X113321219Y-94157476D02*
X112321219Y-94157476D01*
X112321219Y-93062238D02*
X112321219Y-93538428D01*
X112321219Y-93538428D02*
X112797409Y-93586047D01*
X112797409Y-93586047D02*
X112749790Y-93538428D01*
X112749790Y-93538428D02*
X112702171Y-93443190D01*
X112702171Y-93443190D02*
X112702171Y-93205095D01*
X112702171Y-93205095D02*
X112749790Y-93109857D01*
X112749790Y-93109857D02*
X112797409Y-93062238D01*
X112797409Y-93062238D02*
X112892647Y-93014619D01*
X112892647Y-93014619D02*
X113130742Y-93014619D01*
X113130742Y-93014619D02*
X113225980Y-93062238D01*
X113225980Y-93062238D02*
X113273600Y-93109857D01*
X113273600Y-93109857D02*
X113321219Y-93205095D01*
X113321219Y-93205095D02*
X113321219Y-93443190D01*
X113321219Y-93443190D02*
X113273600Y-93538428D01*
X113273600Y-93538428D02*
X113225980Y-93586047D01*
X112749790Y-92443190D02*
X112702171Y-92538428D01*
X112702171Y-92538428D02*
X112654552Y-92586047D01*
X112654552Y-92586047D02*
X112559314Y-92633666D01*
X112559314Y-92633666D02*
X112511695Y-92633666D01*
X112511695Y-92633666D02*
X112416457Y-92586047D01*
X112416457Y-92586047D02*
X112368838Y-92538428D01*
X112368838Y-92538428D02*
X112321219Y-92443190D01*
X112321219Y-92443190D02*
X112321219Y-92252714D01*
X112321219Y-92252714D02*
X112368838Y-92157476D01*
X112368838Y-92157476D02*
X112416457Y-92109857D01*
X112416457Y-92109857D02*
X112511695Y-92062238D01*
X112511695Y-92062238D02*
X112559314Y-92062238D01*
X112559314Y-92062238D02*
X112654552Y-92109857D01*
X112654552Y-92109857D02*
X112702171Y-92157476D01*
X112702171Y-92157476D02*
X112749790Y-92252714D01*
X112749790Y-92252714D02*
X112749790Y-92443190D01*
X112749790Y-92443190D02*
X112797409Y-92538428D01*
X112797409Y-92538428D02*
X112845028Y-92586047D01*
X112845028Y-92586047D02*
X112940266Y-92633666D01*
X112940266Y-92633666D02*
X113130742Y-92633666D01*
X113130742Y-92633666D02*
X113225980Y-92586047D01*
X113225980Y-92586047D02*
X113273600Y-92538428D01*
X113273600Y-92538428D02*
X113321219Y-92443190D01*
X113321219Y-92443190D02*
X113321219Y-92252714D01*
X113321219Y-92252714D02*
X113273600Y-92157476D01*
X113273600Y-92157476D02*
X113225980Y-92109857D01*
X113225980Y-92109857D02*
X113130742Y-92062238D01*
X113130742Y-92062238D02*
X112940266Y-92062238D01*
X112940266Y-92062238D02*
X112845028Y-92109857D01*
X112845028Y-92109857D02*
X112797409Y-92157476D01*
X112797409Y-92157476D02*
X112749790Y-92252714D01*
X112321219Y-91205095D02*
X112321219Y-91395571D01*
X112321219Y-91395571D02*
X112368838Y-91490809D01*
X112368838Y-91490809D02*
X112416457Y-91538428D01*
X112416457Y-91538428D02*
X112559314Y-91633666D01*
X112559314Y-91633666D02*
X112749790Y-91681285D01*
X112749790Y-91681285D02*
X113130742Y-91681285D01*
X113130742Y-91681285D02*
X113225980Y-91633666D01*
X113225980Y-91633666D02*
X113273600Y-91586047D01*
X113273600Y-91586047D02*
X113321219Y-91490809D01*
X113321219Y-91490809D02*
X113321219Y-91300333D01*
X113321219Y-91300333D02*
X113273600Y-91205095D01*
X113273600Y-91205095D02*
X113225980Y-91157476D01*
X113225980Y-91157476D02*
X113130742Y-91109857D01*
X113130742Y-91109857D02*
X112892647Y-91109857D01*
X112892647Y-91109857D02*
X112797409Y-91157476D01*
X112797409Y-91157476D02*
X112749790Y-91205095D01*
X112749790Y-91205095D02*
X112702171Y-91300333D01*
X112702171Y-91300333D02*
X112702171Y-91490809D01*
X112702171Y-91490809D02*
X112749790Y-91586047D01*
X112749790Y-91586047D02*
X112797409Y-91633666D01*
X112797409Y-91633666D02*
X112892647Y-91681285D01*
X113035504Y-90728904D02*
X113035504Y-90252714D01*
X113321219Y-90824142D02*
X112321219Y-90490809D01*
X112321219Y-90490809D02*
X113321219Y-90157476D01*
X113416457Y-90062238D02*
X113416457Y-89300333D01*
X112654552Y-89205094D02*
X112654552Y-88824142D01*
X112321219Y-89062237D02*
X113178361Y-89062237D01*
X113178361Y-89062237D02*
X113273600Y-89014618D01*
X113273600Y-89014618D02*
X113321219Y-88919380D01*
X113321219Y-88919380D02*
X113321219Y-88824142D01*
X113321219Y-88347951D02*
X113273600Y-88443189D01*
X113273600Y-88443189D02*
X113225980Y-88490808D01*
X113225980Y-88490808D02*
X113130742Y-88538427D01*
X113130742Y-88538427D02*
X112845028Y-88538427D01*
X112845028Y-88538427D02*
X112749790Y-88490808D01*
X112749790Y-88490808D02*
X112702171Y-88443189D01*
X112702171Y-88443189D02*
X112654552Y-88347951D01*
X112654552Y-88347951D02*
X112654552Y-88205094D01*
X112654552Y-88205094D02*
X112702171Y-88109856D01*
X112702171Y-88109856D02*
X112749790Y-88062237D01*
X112749790Y-88062237D02*
X112845028Y-88014618D01*
X112845028Y-88014618D02*
X113130742Y-88014618D01*
X113130742Y-88014618D02*
X113225980Y-88062237D01*
X113225980Y-88062237D02*
X113273600Y-88109856D01*
X113273600Y-88109856D02*
X113321219Y-88205094D01*
X113321219Y-88205094D02*
X113321219Y-88347951D01*
X113416457Y-87824142D02*
X113416457Y-87062237D01*
X113321219Y-86252713D02*
X112845028Y-86586046D01*
X113321219Y-86824141D02*
X112321219Y-86824141D01*
X112321219Y-86824141D02*
X112321219Y-86443189D01*
X112321219Y-86443189D02*
X112368838Y-86347951D01*
X112368838Y-86347951D02*
X112416457Y-86300332D01*
X112416457Y-86300332D02*
X112511695Y-86252713D01*
X112511695Y-86252713D02*
X112654552Y-86252713D01*
X112654552Y-86252713D02*
X112749790Y-86300332D01*
X112749790Y-86300332D02*
X112797409Y-86347951D01*
X112797409Y-86347951D02*
X112845028Y-86443189D01*
X112845028Y-86443189D02*
X112845028Y-86824141D01*
X112321219Y-85538427D02*
X113035504Y-85538427D01*
X113035504Y-85538427D02*
X113178361Y-85586046D01*
X113178361Y-85586046D02*
X113273600Y-85681284D01*
X113273600Y-85681284D02*
X113321219Y-85824141D01*
X113321219Y-85824141D02*
X113321219Y-85919379D01*
X113321219Y-84538427D02*
X113321219Y-85109855D01*
X113321219Y-84824141D02*
X112321219Y-84824141D01*
X112321219Y-84824141D02*
X112464076Y-84919379D01*
X112464076Y-84919379D02*
X112559314Y-85014617D01*
X112559314Y-85014617D02*
X112606933Y-85109855D01*
X113321219Y-83586046D02*
X113321219Y-84157474D01*
X113321219Y-83871760D02*
X112321219Y-83871760D01*
X112321219Y-83871760D02*
X112464076Y-83966998D01*
X112464076Y-83966998D02*
X112559314Y-84062236D01*
X112559314Y-84062236D02*
X112606933Y-84157474D01*
X113416457Y-83395570D02*
X113416457Y-82633665D01*
X113321219Y-81966998D02*
X112797409Y-81966998D01*
X112797409Y-81966998D02*
X112702171Y-82014617D01*
X112702171Y-82014617D02*
X112654552Y-82109855D01*
X112654552Y-82109855D02*
X112654552Y-82300331D01*
X112654552Y-82300331D02*
X112702171Y-82395569D01*
X113273600Y-81966998D02*
X113321219Y-82062236D01*
X113321219Y-82062236D02*
X113321219Y-82300331D01*
X113321219Y-82300331D02*
X113273600Y-82395569D01*
X113273600Y-82395569D02*
X113178361Y-82443188D01*
X113178361Y-82443188D02*
X113083123Y-82443188D01*
X113083123Y-82443188D02*
X112987885Y-82395569D01*
X112987885Y-82395569D02*
X112940266Y-82300331D01*
X112940266Y-82300331D02*
X112940266Y-82062236D01*
X112940266Y-82062236D02*
X112892647Y-81966998D01*
X113321219Y-81062236D02*
X112321219Y-81062236D01*
X113273600Y-81062236D02*
X113321219Y-81157474D01*
X113321219Y-81157474D02*
X113321219Y-81347950D01*
X113321219Y-81347950D02*
X113273600Y-81443188D01*
X113273600Y-81443188D02*
X113225980Y-81490807D01*
X113225980Y-81490807D02*
X113130742Y-81538426D01*
X113130742Y-81538426D02*
X112845028Y-81538426D01*
X112845028Y-81538426D02*
X112749790Y-81490807D01*
X112749790Y-81490807D02*
X112702171Y-81443188D01*
X112702171Y-81443188D02*
X112654552Y-81347950D01*
X112654552Y-81347950D02*
X112654552Y-81157474D01*
X112654552Y-81157474D02*
X112702171Y-81062236D01*
X113321219Y-80157474D02*
X112797409Y-80157474D01*
X112797409Y-80157474D02*
X112702171Y-80205093D01*
X112702171Y-80205093D02*
X112654552Y-80300331D01*
X112654552Y-80300331D02*
X112654552Y-80490807D01*
X112654552Y-80490807D02*
X112702171Y-80586045D01*
X113273600Y-80157474D02*
X113321219Y-80252712D01*
X113321219Y-80252712D02*
X113321219Y-80490807D01*
X113321219Y-80490807D02*
X113273600Y-80586045D01*
X113273600Y-80586045D02*
X113178361Y-80633664D01*
X113178361Y-80633664D02*
X113083123Y-80633664D01*
X113083123Y-80633664D02*
X112987885Y-80586045D01*
X112987885Y-80586045D02*
X112940266Y-80490807D01*
X112940266Y-80490807D02*
X112940266Y-80252712D01*
X112940266Y-80252712D02*
X112892647Y-80157474D01*
X112654552Y-79681283D02*
X113654552Y-79681283D01*
X112702171Y-79681283D02*
X112654552Y-79586045D01*
X112654552Y-79586045D02*
X112654552Y-79395569D01*
X112654552Y-79395569D02*
X112702171Y-79300331D01*
X112702171Y-79300331D02*
X112749790Y-79252712D01*
X112749790Y-79252712D02*
X112845028Y-79205093D01*
X112845028Y-79205093D02*
X113130742Y-79205093D01*
X113130742Y-79205093D02*
X113225980Y-79252712D01*
X113225980Y-79252712D02*
X113273600Y-79300331D01*
X113273600Y-79300331D02*
X113321219Y-79395569D01*
X113321219Y-79395569D02*
X113321219Y-79586045D01*
X113321219Y-79586045D02*
X113273600Y-79681283D01*
X112654552Y-78919378D02*
X112654552Y-78538426D01*
X112321219Y-78776521D02*
X113178361Y-78776521D01*
X113178361Y-78776521D02*
X113273600Y-78728902D01*
X113273600Y-78728902D02*
X113321219Y-78633664D01*
X113321219Y-78633664D02*
X113321219Y-78538426D01*
X113273600Y-77824140D02*
X113321219Y-77919378D01*
X113321219Y-77919378D02*
X113321219Y-78109854D01*
X113321219Y-78109854D02*
X113273600Y-78205092D01*
X113273600Y-78205092D02*
X113178361Y-78252711D01*
X113178361Y-78252711D02*
X112797409Y-78252711D01*
X112797409Y-78252711D02*
X112702171Y-78205092D01*
X112702171Y-78205092D02*
X112654552Y-78109854D01*
X112654552Y-78109854D02*
X112654552Y-77919378D01*
X112654552Y-77919378D02*
X112702171Y-77824140D01*
X112702171Y-77824140D02*
X112797409Y-77776521D01*
X112797409Y-77776521D02*
X112892647Y-77776521D01*
X112892647Y-77776521D02*
X112987885Y-78252711D01*
X113321219Y-77347949D02*
X112654552Y-77347949D01*
X112845028Y-77347949D02*
X112749790Y-77300330D01*
X112749790Y-77300330D02*
X112702171Y-77252711D01*
X112702171Y-77252711D02*
X112654552Y-77157473D01*
X112654552Y-77157473D02*
X112654552Y-77062235D01*
D10*
X100750819Y-111910030D02*
X100750819Y-112386220D01*
X100750819Y-112386220D02*
X99750819Y-112386220D01*
X99750819Y-111671934D02*
X99750819Y-111052887D01*
X99750819Y-111052887D02*
X100131771Y-111386220D01*
X100131771Y-111386220D02*
X100131771Y-111243363D01*
X100131771Y-111243363D02*
X100179390Y-111148125D01*
X100179390Y-111148125D02*
X100227009Y-111100506D01*
X100227009Y-111100506D02*
X100322247Y-111052887D01*
X100322247Y-111052887D02*
X100560342Y-111052887D01*
X100560342Y-111052887D02*
X100655580Y-111100506D01*
X100655580Y-111100506D02*
X100703200Y-111148125D01*
X100703200Y-111148125D02*
X100750819Y-111243363D01*
X100750819Y-111243363D02*
X100750819Y-111529077D01*
X100750819Y-111529077D02*
X100703200Y-111624315D01*
X100703200Y-111624315D02*
X100655580Y-111671934D01*
X99750819Y-110005267D02*
X99750819Y-109433839D01*
X100750819Y-109719553D02*
X99750819Y-109719553D01*
X100750819Y-107767172D02*
X100274628Y-108100505D01*
X100750819Y-108338600D02*
X99750819Y-108338600D01*
X99750819Y-108338600D02*
X99750819Y-107957648D01*
X99750819Y-107957648D02*
X99798438Y-107862410D01*
X99798438Y-107862410D02*
X99846057Y-107814791D01*
X99846057Y-107814791D02*
X99941295Y-107767172D01*
X99941295Y-107767172D02*
X100084152Y-107767172D01*
X100084152Y-107767172D02*
X100179390Y-107814791D01*
X100179390Y-107814791D02*
X100227009Y-107862410D01*
X100227009Y-107862410D02*
X100274628Y-107957648D01*
X100274628Y-107957648D02*
X100274628Y-108338600D01*
X100750819Y-93368030D02*
X100750819Y-93844220D01*
X100750819Y-93844220D02*
X99750819Y-93844220D01*
X99846057Y-93082315D02*
X99798438Y-93034696D01*
X99798438Y-93034696D02*
X99750819Y-92939458D01*
X99750819Y-92939458D02*
X99750819Y-92701363D01*
X99750819Y-92701363D02*
X99798438Y-92606125D01*
X99798438Y-92606125D02*
X99846057Y-92558506D01*
X99846057Y-92558506D02*
X99941295Y-92510887D01*
X99941295Y-92510887D02*
X100036533Y-92510887D01*
X100036533Y-92510887D02*
X100179390Y-92558506D01*
X100179390Y-92558506D02*
X100750819Y-93129934D01*
X100750819Y-93129934D02*
X100750819Y-92510887D01*
X99724819Y-104406333D02*
X100439104Y-104406333D01*
X100439104Y-104406333D02*
X100581961Y-104453952D01*
X100581961Y-104453952D02*
X100677200Y-104549190D01*
X100677200Y-104549190D02*
X100724819Y-104692047D01*
X100724819Y-104692047D02*
X100724819Y-104787285D01*
X99724819Y-104025380D02*
X99724819Y-103406333D01*
X99724819Y-103406333D02*
X100105771Y-103739666D01*
X100105771Y-103739666D02*
X100105771Y-103596809D01*
X100105771Y-103596809D02*
X100153390Y-103501571D01*
X100153390Y-103501571D02*
X100201009Y-103453952D01*
X100201009Y-103453952D02*
X100296247Y-103406333D01*
X100296247Y-103406333D02*
X100534342Y-103406333D01*
X100534342Y-103406333D02*
X100629580Y-103453952D01*
X100629580Y-103453952D02*
X100677200Y-103501571D01*
X100677200Y-103501571D02*
X100724819Y-103596809D01*
X100724819Y-103596809D02*
X100724819Y-103882523D01*
X100724819Y-103882523D02*
X100677200Y-103977761D01*
X100677200Y-103977761D02*
X100629580Y-104025380D01*
X99724819Y-119011333D02*
X100439104Y-119011333D01*
X100439104Y-119011333D02*
X100581961Y-119058952D01*
X100581961Y-119058952D02*
X100677200Y-119154190D01*
X100677200Y-119154190D02*
X100724819Y-119297047D01*
X100724819Y-119297047D02*
X100724819Y-119392285D01*
X100058152Y-118106571D02*
X100724819Y-118106571D01*
X99677200Y-118344666D02*
X100391485Y-118582761D01*
X100391485Y-118582761D02*
X100391485Y-117963714D01*
X99724819Y-75220333D02*
X100439104Y-75220333D01*
X100439104Y-75220333D02*
X100581961Y-75267952D01*
X100581961Y-75267952D02*
X100677200Y-75363190D01*
X100677200Y-75363190D02*
X100724819Y-75506047D01*
X100724819Y-75506047D02*
X100724819Y-75601285D01*
X100724819Y-74220333D02*
X100724819Y-74791761D01*
X100724819Y-74506047D02*
X99724819Y-74506047D01*
X99724819Y-74506047D02*
X99867676Y-74601285D01*
X99867676Y-74601285D02*
X99962914Y-74696523D01*
X99962914Y-74696523D02*
X100010533Y-74791761D01*
X99724819Y-89801333D02*
X100439104Y-89801333D01*
X100439104Y-89801333D02*
X100581961Y-89848952D01*
X100581961Y-89848952D02*
X100677200Y-89944190D01*
X100677200Y-89944190D02*
X100724819Y-90087047D01*
X100724819Y-90087047D02*
X100724819Y-90182285D01*
X99820057Y-89372761D02*
X99772438Y-89325142D01*
X99772438Y-89325142D02*
X99724819Y-89229904D01*
X99724819Y-89229904D02*
X99724819Y-88991809D01*
X99724819Y-88991809D02*
X99772438Y-88896571D01*
X99772438Y-88896571D02*
X99820057Y-88848952D01*
X99820057Y-88848952D02*
X99915295Y-88801333D01*
X99915295Y-88801333D02*
X100010533Y-88801333D01*
X100010533Y-88801333D02*
X100153390Y-88848952D01*
X100153390Y-88848952D02*
X100724819Y-89420380D01*
X100724819Y-89420380D02*
X100724819Y-88801333D01*
X107955819Y-66447333D02*
X108670104Y-66447333D01*
X108670104Y-66447333D02*
X108812961Y-66494952D01*
X108812961Y-66494952D02*
X108908200Y-66590190D01*
X108908200Y-66590190D02*
X108955819Y-66733047D01*
X108955819Y-66733047D02*
X108955819Y-66828285D01*
X107955819Y-65494952D02*
X107955819Y-65971142D01*
X107955819Y-65971142D02*
X108432009Y-66018761D01*
X108432009Y-66018761D02*
X108384390Y-65971142D01*
X108384390Y-65971142D02*
X108336771Y-65875904D01*
X108336771Y-65875904D02*
X108336771Y-65637809D01*
X108336771Y-65637809D02*
X108384390Y-65542571D01*
X108384390Y-65542571D02*
X108432009Y-65494952D01*
X108432009Y-65494952D02*
X108527247Y-65447333D01*
X108527247Y-65447333D02*
X108765342Y-65447333D01*
X108765342Y-65447333D02*
X108860580Y-65494952D01*
X108860580Y-65494952D02*
X108908200Y-65542571D01*
X108908200Y-65542571D02*
X108955819Y-65637809D01*
X108955819Y-65637809D02*
X108955819Y-65875904D01*
X108955819Y-65875904D02*
X108908200Y-65971142D01*
X108908200Y-65971142D02*
X108860580Y-66018761D01*
D12*
X87660000Y-102203000D02*
X88120000Y-102203000D01*
X87660000Y-115623000D02*
X88120000Y-115623000D01*
X90320000Y-102203000D02*
X99450000Y-102203000D01*
X97340000Y-101893000D02*
X98870000Y-101893000D01*
X99450000Y-102203000D02*
X99450000Y-115623000D01*
X99450000Y-115623000D02*
X90320000Y-115623000D01*
X87660000Y-116808000D02*
X88120000Y-116808000D01*
X87660000Y-130228000D02*
X88120000Y-130228000D01*
X90320000Y-116808000D02*
X99450000Y-116808000D01*
X97340000Y-116498000D02*
X98870000Y-116498000D01*
X99450000Y-116808000D02*
X99450000Y-130228000D01*
X99450000Y-130228000D02*
X90320000Y-130228000D01*
X87660000Y-73017000D02*
X88120000Y-73017000D01*
X87660000Y-86437000D02*
X88120000Y-86437000D01*
X90320000Y-73017000D02*
X99450000Y-73017000D01*
X97340000Y-72707000D02*
X98870000Y-72707000D01*
X99450000Y-73017000D02*
X99450000Y-86437000D01*
X99450000Y-86437000D02*
X90320000Y-86437000D01*
X87660000Y-87598000D02*
X88120000Y-87598000D01*
X87660000Y-101018000D02*
X88120000Y-101018000D01*
X90320000Y-87598000D02*
X99450000Y-87598000D01*
X97340000Y-87288000D02*
X98870000Y-87288000D01*
X99450000Y-87598000D02*
X99450000Y-101018000D01*
X99450000Y-101018000D02*
X90320000Y-101018000D01*
X91180500Y-70014000D02*
X91180500Y-54704000D01*
X91180500Y-70014000D02*
X106700500Y-70014000D01*
X106700500Y-54704000D02*
X91180500Y-54704000D01*
X106700500Y-70014000D02*
X106700500Y-54704000D01*
X106885500Y-66134000D02*
X107385500Y-66634000D01*
X107385500Y-65634000D02*
X106885500Y-66134000D01*
X107385500Y-66634000D02*
X107385500Y-65634000D01*
D13*
G36*
X104572487Y-119210448D02*
G01*
X104603322Y-119213859D01*
X104624989Y-119222969D01*
X104643551Y-119243630D01*
X104665068Y-119281691D01*
X104682628Y-119316746D01*
X104748875Y-119425138D01*
X104833897Y-119525096D01*
X104930359Y-119608932D01*
X105007943Y-119657729D01*
X105065049Y-119684557D01*
X105139675Y-119715475D01*
X105220804Y-119746072D01*
X105276555Y-119765262D01*
X105381965Y-119803636D01*
X105460396Y-119841291D01*
X105514559Y-119879782D01*
X105547089Y-119920525D01*
X105549745Y-119944612D01*
X105543296Y-119991508D01*
X105527413Y-120062958D01*
X105502267Y-120158899D01*
X105461469Y-120314174D01*
X105425860Y-120462977D01*
X105396516Y-120600197D01*
X105374513Y-120720722D01*
X105360927Y-120819441D01*
X105359049Y-120839197D01*
X105353471Y-120891926D01*
X105347238Y-120930639D01*
X105341564Y-120948071D01*
X105340788Y-120948400D01*
X105331115Y-120935874D01*
X105309105Y-120901153D01*
X105277016Y-120847996D01*
X105237105Y-120780163D01*
X105191627Y-120701416D01*
X105173257Y-120669238D01*
X105045862Y-120445337D01*
X104932463Y-120245916D01*
X104832288Y-120069599D01*
X104744566Y-119915007D01*
X104668525Y-119780765D01*
X104603393Y-119665494D01*
X104548398Y-119567817D01*
X104502770Y-119486359D01*
X104465736Y-119419740D01*
X104436524Y-119366585D01*
X104414364Y-119325516D01*
X104398483Y-119295156D01*
X104388109Y-119274128D01*
X104382472Y-119261054D01*
X104380815Y-119255033D01*
X104393092Y-119237286D01*
X104428342Y-119222710D01*
X104479807Y-119212876D01*
X104540724Y-119209356D01*
X104572487Y-119210448D01*
G37*
G36*
X107039377Y-122710577D02*
G01*
X107203693Y-122736384D01*
X107354235Y-122776879D01*
X107488720Y-122831051D01*
X107604867Y-122897889D01*
X107700394Y-122976381D01*
X107773020Y-123065517D01*
X107820461Y-123164284D01*
X107834458Y-123219319D01*
X107845189Y-123278709D01*
X107742367Y-123173203D01*
X107656758Y-123097193D01*
X107559934Y-123030829D01*
X107460872Y-122979546D01*
X107373801Y-122949966D01*
X107356951Y-122947786D01*
X107353689Y-122954043D01*
X107366093Y-122971883D01*
X107396240Y-123004447D01*
X107437078Y-123045767D01*
X107481664Y-123091659D01*
X107516954Y-123130470D01*
X107538403Y-123157053D01*
X107542768Y-123165367D01*
X107529989Y-123167726D01*
X107496284Y-123161046D01*
X107448602Y-123146762D01*
X107442270Y-123144605D01*
X107318675Y-123111873D01*
X107174039Y-123090074D01*
X107014952Y-123079049D01*
X106848007Y-123078638D01*
X106679795Y-123088681D01*
X106516908Y-123109018D01*
X106365939Y-123139490D01*
X106251179Y-123173496D01*
X106213682Y-123184216D01*
X106190992Y-123185854D01*
X106187903Y-123182989D01*
X106197233Y-123167495D01*
X106222675Y-123134617D01*
X106260405Y-123089093D01*
X106306600Y-123035659D01*
X106309325Y-123032569D01*
X106359149Y-122975564D01*
X106390853Y-122937345D01*
X106391366Y-122936599D01*
X107304550Y-122936599D01*
X107311994Y-122944043D01*
X107319438Y-122936599D01*
X107311994Y-122929155D01*
X107304550Y-122936599D01*
X106391366Y-122936599D01*
X106406400Y-122914716D01*
X106407755Y-122904478D01*
X106396881Y-122903436D01*
X106387490Y-122905360D01*
X106356549Y-122916023D01*
X106306525Y-122936791D01*
X106244956Y-122964425D01*
X106193849Y-122988620D01*
X106078394Y-123053185D01*
X105977229Y-123126845D01*
X105896121Y-123205017D01*
X105856477Y-123256704D01*
X105832137Y-123293926D01*
X105831357Y-123227906D01*
X105844750Y-123142084D01*
X105887204Y-123057572D01*
X105959048Y-122973747D01*
X105973777Y-122959914D01*
X106088230Y-122873755D01*
X106224218Y-122805153D01*
X106382678Y-122753771D01*
X106564550Y-122719271D01*
X106678549Y-122707072D01*
X106863568Y-122700470D01*
X107039377Y-122710577D01*
G37*
G36*
X110562175Y-111237322D02*
G01*
X110640631Y-111291245D01*
X110653104Y-111303083D01*
X110714234Y-111372189D01*
X110769836Y-111453987D01*
X110820343Y-111550181D01*
X110866184Y-111662478D01*
X110907790Y-111792583D01*
X110945594Y-111942203D01*
X110980025Y-112113044D01*
X111011514Y-112306811D01*
X111040493Y-112525210D01*
X111067392Y-112769948D01*
X111092643Y-113042730D01*
X111092675Y-113043105D01*
X111107387Y-113238570D01*
X111119679Y-113449869D01*
X111129536Y-113673003D01*
X111136946Y-113903969D01*
X111141896Y-114138766D01*
X111144371Y-114373394D01*
X111144360Y-114603851D01*
X111141848Y-114826135D01*
X111136822Y-115036246D01*
X111129269Y-115230183D01*
X111119176Y-115403943D01*
X111106529Y-115553526D01*
X111101174Y-115602166D01*
X111068697Y-115875822D01*
X111113827Y-115990028D01*
X111162134Y-116122200D01*
X111195897Y-116240347D01*
X111217522Y-116354928D01*
X111229409Y-116476403D01*
X111230635Y-116498504D01*
X111230853Y-116682394D01*
X111211466Y-116848980D01*
X111171723Y-117004009D01*
X111160364Y-117036611D01*
X111129427Y-117109430D01*
X111088934Y-117187987D01*
X111043733Y-117264194D01*
X110998669Y-117329963D01*
X110958589Y-117377208D01*
X110953244Y-117382253D01*
X110930283Y-117411181D01*
X110922487Y-117434309D01*
X110930377Y-117457888D01*
X110952304Y-117501784D01*
X110985652Y-117561627D01*
X111027803Y-117633049D01*
X111076143Y-117711682D01*
X111128054Y-117793155D01*
X111180920Y-117873101D01*
X111215224Y-117923136D01*
X111382126Y-118144232D01*
X111555945Y-118338081D01*
X111738787Y-118506822D01*
X111932759Y-118652594D01*
X111934913Y-118654045D01*
X111988274Y-118690984D01*
X112031439Y-118722842D01*
X112058921Y-118745456D01*
X112065868Y-118753474D01*
X112055623Y-118765519D01*
X112020762Y-118776787D01*
X111966442Y-118786883D01*
X111897820Y-118795411D01*
X111820055Y-118801977D01*
X111738304Y-118806186D01*
X111657725Y-118807642D01*
X111583476Y-118805950D01*
X111520715Y-118800716D01*
X111497256Y-118797035D01*
X111439259Y-118785990D01*
X111618838Y-119000707D01*
X111728188Y-119133496D01*
X111828633Y-119259515D01*
X111917965Y-119375820D01*
X111993979Y-119479468D01*
X112054468Y-119567514D01*
X112097225Y-119637015D01*
X112101263Y-119644343D01*
X112132806Y-119705477D01*
X112163217Y-119769441D01*
X112189479Y-119829295D01*
X112208579Y-119878103D01*
X112217499Y-119908927D01*
X112217797Y-119912455D01*
X112208232Y-119911010D01*
X112183127Y-119892391D01*
X112147872Y-119860607D01*
X112147076Y-119859841D01*
X112093983Y-119812018D01*
X112032664Y-119761507D01*
X111994468Y-119732493D01*
X111955821Y-119706038D01*
X111900139Y-119669873D01*
X111832328Y-119626989D01*
X111757294Y-119580377D01*
X111679943Y-119533028D01*
X111605182Y-119487931D01*
X111537916Y-119448077D01*
X111483053Y-119416458D01*
X111445498Y-119396064D01*
X111433412Y-119390496D01*
X111432772Y-119394902D01*
X111451965Y-119414477D01*
X111487479Y-119445902D01*
X111525564Y-119477573D01*
X111602183Y-119542558D01*
X111671110Y-119607584D01*
X111737297Y-119678136D01*
X111805696Y-119759699D01*
X111881257Y-119857759D01*
X111936332Y-119932629D01*
X112015753Y-120040792D01*
X112083285Y-120129623D01*
X112143461Y-120204628D01*
X112200816Y-120271313D01*
X112259883Y-120335185D01*
X112310338Y-120386873D01*
X112357952Y-120436384D01*
X112383047Y-120468521D01*
X112384383Y-120485056D01*
X112360721Y-120487764D01*
X112310822Y-120478420D01*
X112255974Y-120464710D01*
X112151770Y-120428263D01*
X112034860Y-120369617D01*
X111903867Y-120287989D01*
X111757410Y-120182599D01*
X111756250Y-120181717D01*
X111644670Y-120097712D01*
X111537929Y-120018983D01*
X111439882Y-119948281D01*
X111354385Y-119888357D01*
X111285293Y-119841963D01*
X111244398Y-119816425D01*
X111209419Y-119796362D01*
X111195128Y-119791205D01*
X111196629Y-119800624D01*
X111203360Y-119813676D01*
X111227921Y-119846623D01*
X111254781Y-119872202D01*
X111293228Y-119909305D01*
X111344299Y-119969026D01*
X111405844Y-120048126D01*
X111475715Y-120143367D01*
X111551765Y-120251513D01*
X111631845Y-120369324D01*
X111713806Y-120493563D01*
X111795501Y-120620992D01*
X111874782Y-120748372D01*
X111949499Y-120872467D01*
X112017506Y-120990038D01*
X112076653Y-121097846D01*
X112107452Y-121157408D01*
X112167863Y-121281383D01*
X112214621Y-121386783D01*
X112250157Y-121480094D01*
X112276899Y-121567803D01*
X112297277Y-121656396D01*
X112300385Y-121672558D01*
X112313209Y-121748632D01*
X112318563Y-121799001D01*
X112316626Y-121822938D01*
X112307577Y-121819719D01*
X112291595Y-121788616D01*
X112279337Y-121757825D01*
X112225184Y-121641895D01*
X112147041Y-121515848D01*
X112047585Y-121382818D01*
X111929490Y-121245942D01*
X111795433Y-121108356D01*
X111648088Y-120973196D01*
X111517787Y-120865236D01*
X111459311Y-120820598D01*
X111406072Y-120782753D01*
X111360824Y-120753126D01*
X111326316Y-120733142D01*
X111305299Y-120724228D01*
X111300524Y-120727809D01*
X111314742Y-120745311D01*
X111350704Y-120778159D01*
X111352121Y-120779374D01*
X111389283Y-120815476D01*
X111429449Y-120863600D01*
X111474788Y-120926895D01*
X111527469Y-121008511D01*
X111589661Y-121111598D01*
X111637605Y-121194029D01*
X111773697Y-121449756D01*
X111887296Y-121704006D01*
X111977070Y-121953366D01*
X112041687Y-122194425D01*
X112056341Y-122266611D01*
X112074501Y-122392313D01*
X112086170Y-122535122D01*
X112091448Y-122687749D01*
X112090433Y-122842902D01*
X112083226Y-122993292D01*
X112069924Y-123131629D01*
X112050629Y-123250622D01*
X112042445Y-123286482D01*
X112036518Y-123296700D01*
X112029595Y-123281509D01*
X112021145Y-123239249D01*
X112015371Y-123201934D01*
X112001613Y-123130883D01*
X111982139Y-123058682D01*
X111961006Y-123000236D01*
X111959629Y-122997176D01*
X111902767Y-122903271D01*
X111819692Y-122809360D01*
X111713861Y-122717970D01*
X111588732Y-122631629D01*
X111447761Y-122552865D01*
X111294405Y-122484204D01*
X111220259Y-122456572D01*
X111147163Y-122430868D01*
X111093361Y-122413070D01*
X111058603Y-122405337D01*
X111042641Y-122409824D01*
X111045226Y-122428691D01*
X111066110Y-122464094D01*
X111105042Y-122518192D01*
X111161776Y-122593141D01*
X111198883Y-122641931D01*
X111266118Y-122729863D01*
X111337344Y-122821866D01*
X111407013Y-122910856D01*
X111469581Y-122989745D01*
X111516886Y-123048264D01*
X111595633Y-123144645D01*
X111656214Y-123219765D01*
X111699747Y-123275055D01*
X111727350Y-123311945D01*
X111740138Y-123331864D01*
X111741361Y-123335555D01*
X111728655Y-123335901D01*
X111696164Y-123328493D01*
X111670640Y-123321035D01*
X111639590Y-123313559D01*
X111599716Y-123308429D01*
X111547913Y-123305666D01*
X111481078Y-123305291D01*
X111396107Y-123307324D01*
X111289896Y-123311786D01*
X111159340Y-123318697D01*
X111049040Y-123325171D01*
X110903837Y-123324816D01*
X110772065Y-123303718D01*
X110646402Y-123259795D01*
X110519522Y-123190965D01*
X110475828Y-123162219D01*
X110438555Y-123137235D01*
X110422202Y-123128606D01*
X110423335Y-123135555D01*
X110435430Y-123153056D01*
X110541739Y-123305772D01*
X110632215Y-123448774D01*
X110705404Y-123579451D01*
X110759852Y-123695193D01*
X110794105Y-123793392D01*
X110795709Y-123799545D01*
X110814277Y-123909296D01*
X110819906Y-124033703D01*
X110813412Y-124164196D01*
X110795612Y-124292207D01*
X110767322Y-124409165D01*
X110729358Y-124506500D01*
X110728138Y-124508909D01*
X110695731Y-124572434D01*
X110677542Y-124519528D01*
X110649700Y-124457644D01*
X110605476Y-124381587D01*
X110549641Y-124298141D01*
X110486966Y-124214093D01*
X110422220Y-124136226D01*
X110367079Y-124077970D01*
X110300768Y-124013362D01*
X110293977Y-124204523D01*
X110290274Y-124288513D01*
X110285272Y-124350267D01*
X110277726Y-124397327D01*
X110266393Y-124437233D01*
X110250029Y-124477527D01*
X110248329Y-124481294D01*
X110227476Y-124525556D01*
X110211448Y-124556484D01*
X110204210Y-124566904D01*
X110201692Y-124553172D01*
X110199572Y-124516602D01*
X110198204Y-124464135D01*
X110197974Y-124444072D01*
X110185743Y-124296584D01*
X110150141Y-124152793D01*
X110095479Y-124017590D01*
X110069142Y-123965620D01*
X110036798Y-123907352D01*
X110001776Y-123848091D01*
X109967405Y-123793141D01*
X109937014Y-123747807D01*
X109913931Y-123717395D01*
X109901486Y-123707209D01*
X109900917Y-123707543D01*
X109901582Y-123723658D01*
X109908585Y-123761082D01*
X109920490Y-123812379D01*
X109923354Y-123823733D01*
X109964267Y-124037669D01*
X109982253Y-124266510D01*
X109977573Y-124506481D01*
X109950490Y-124753806D01*
X109901265Y-125004709D01*
X109830159Y-125255414D01*
X109822603Y-125278113D01*
X109796915Y-125350819D01*
X109768159Y-125426529D01*
X109738426Y-125500394D01*
X109709807Y-125567563D01*
X109684394Y-125623185D01*
X109664277Y-125662411D01*
X109651547Y-125680390D01*
X109649075Y-125680635D01*
X109648981Y-125664429D01*
X109653619Y-125626061D01*
X109662068Y-125572606D01*
X109666237Y-125548971D01*
X109683123Y-125380510D01*
X109675955Y-125201896D01*
X109645896Y-125018817D01*
X109594107Y-124836960D01*
X109521749Y-124662011D01*
X109462560Y-124551862D01*
X109418280Y-124478151D01*
X109386692Y-124429329D01*
X109365652Y-124404467D01*
X109353020Y-124402634D01*
X109346653Y-124422901D01*
X109344409Y-124464335D01*
X109344149Y-124500437D01*
X109336968Y-124680256D01*
X109316825Y-124869572D01*
X109285191Y-125061292D01*
X109243536Y-125248326D01*
X109193333Y-125423581D01*
X109136051Y-125579965D01*
X109106433Y-125646329D01*
X109063665Y-125735661D01*
X109072006Y-125564442D01*
X109074341Y-125489689D01*
X109074786Y-125406412D01*
X109073571Y-125319469D01*
X109070925Y-125233716D01*
X109067078Y-125154011D01*
X109062259Y-125085212D01*
X109056696Y-125032177D01*
X109050620Y-124999761D01*
X109044997Y-124992170D01*
X109036220Y-125011154D01*
X109031744Y-125047339D01*
X109031599Y-125055385D01*
X109028017Y-125110673D01*
X109018127Y-125188735D01*
X109003139Y-125283533D01*
X108984265Y-125389027D01*
X108962714Y-125499178D01*
X108939696Y-125607949D01*
X108916423Y-125709301D01*
X108894105Y-125797194D01*
X108873951Y-125865591D01*
X108863296Y-125895017D01*
X108853823Y-125916542D01*
X108847378Y-125923120D01*
X108842756Y-125911188D01*
X108838750Y-125877185D01*
X108834154Y-125817547D01*
X108833371Y-125806623D01*
X108817007Y-125654618D01*
X108791231Y-125517666D01*
X108757224Y-125401331D01*
X108736651Y-125350769D01*
X108696637Y-125263649D01*
X108696144Y-125469878D01*
X108683623Y-125690392D01*
X108646433Y-125907813D01*
X108583541Y-126126568D01*
X108493910Y-126351088D01*
X108486014Y-126368428D01*
X108459410Y-126422477D01*
X108426158Y-126484353D01*
X108389493Y-126548709D01*
X108352653Y-126610193D01*
X108318873Y-126663458D01*
X108291392Y-126703154D01*
X108273444Y-126723932D01*
X108269816Y-126725755D01*
X108257653Y-126713496D01*
X108249629Y-126694879D01*
X108238616Y-126673333D01*
X108213674Y-126631412D01*
X108177507Y-126573440D01*
X108132819Y-126503741D01*
X108082313Y-126426638D01*
X108075077Y-126415717D01*
X107992060Y-126288019D01*
X107925930Y-126180116D01*
X107874905Y-126088606D01*
X107837201Y-126010089D01*
X107811034Y-125941163D01*
X107795430Y-125882407D01*
X107784106Y-125840198D01*
X107772200Y-125814713D01*
X107764787Y-125810914D01*
X107746096Y-125833017D01*
X107722581Y-125875270D01*
X107698150Y-125929353D01*
X107676712Y-125986948D01*
X107667227Y-126018545D01*
X107650455Y-126131793D01*
X107655522Y-126257414D01*
X107681538Y-126388539D01*
X107727613Y-126518302D01*
X107733705Y-126531843D01*
X107750222Y-126571402D01*
X107758378Y-126598395D01*
X107758135Y-126604682D01*
X107743851Y-126599170D01*
X107712549Y-126576121D01*
X107668250Y-126539071D01*
X107614979Y-126491552D01*
X107556757Y-126437098D01*
X107497608Y-126379244D01*
X107472245Y-126353539D01*
X107413673Y-126289833D01*
X107349113Y-126213921D01*
X107289098Y-126138372D01*
X107266405Y-126107877D01*
X107221356Y-126041184D01*
X107173060Y-125962170D01*
X107124506Y-125876573D01*
X107078683Y-125790132D01*
X107038581Y-125708586D01*
X107007189Y-125637674D01*
X106987497Y-125583134D01*
X106982962Y-125563735D01*
X106974930Y-125512332D01*
X107145732Y-125464885D01*
X107401477Y-125382479D01*
X107641914Y-125281052D01*
X107868364Y-125159424D01*
X108082146Y-125016416D01*
X108284583Y-124850847D01*
X108476994Y-124661537D01*
X108660701Y-124447304D01*
X108837024Y-124206970D01*
X109007284Y-123939353D01*
X109162733Y-123662329D01*
X109207077Y-123579986D01*
X109251443Y-123499851D01*
X109292024Y-123428648D01*
X109325010Y-123373102D01*
X109339635Y-123349992D01*
X109416594Y-123248259D01*
X109519136Y-123137241D01*
X109647911Y-123016289D01*
X109803568Y-122884754D01*
X109812229Y-122877758D01*
X109888143Y-122815386D01*
X109963500Y-122751386D01*
X110032053Y-122691209D01*
X110087553Y-122640308D01*
X110114137Y-122614300D01*
X110225119Y-122480040D01*
X110319625Y-122321625D01*
X110397232Y-122139983D01*
X110457514Y-121936040D01*
X110484884Y-121805063D01*
X110494524Y-121732740D01*
X110502308Y-121637192D01*
X110508130Y-121524918D01*
X110511879Y-121402419D01*
X110513449Y-121276195D01*
X110512730Y-121152746D01*
X110509616Y-121038573D01*
X110503998Y-120940176D01*
X110499991Y-120896857D01*
X110492644Y-120840024D01*
X110485393Y-120809983D01*
X110477388Y-120807328D01*
X110467780Y-120832651D01*
X110455719Y-120886547D01*
X110446727Y-120934078D01*
X110395042Y-121154826D01*
X110323692Y-121362046D01*
X110234140Y-121553652D01*
X110127848Y-121727559D01*
X110006279Y-121881684D01*
X109870895Y-122013942D01*
X109723158Y-122122248D01*
X109564532Y-122204516D01*
X109551815Y-122209749D01*
X109504375Y-122227308D01*
X109468587Y-122237568D01*
X109452535Y-122238374D01*
X109451833Y-122220813D01*
X109458316Y-122183531D01*
X109468038Y-122144185D01*
X109489529Y-122047788D01*
X109501559Y-121953264D01*
X109503288Y-121869883D01*
X109497335Y-121820299D01*
X109484545Y-121761092D01*
X109426615Y-121857521D01*
X109393116Y-121912575D01*
X109350288Y-121981964D01*
X109304804Y-122054910D01*
X109279341Y-122095384D01*
X109226713Y-122180927D01*
X109180759Y-122261465D01*
X109140115Y-122340803D01*
X109103416Y-122422747D01*
X109069297Y-122511102D01*
X109036394Y-122609674D01*
X109003343Y-122722268D01*
X108968779Y-122852690D01*
X108931338Y-123004745D01*
X108889655Y-123182239D01*
X108889650Y-123182261D01*
X108827430Y-123435798D01*
X108764061Y-123661351D01*
X108698559Y-123860712D01*
X108629939Y-124035674D01*
X108557217Y-124188029D01*
X108479408Y-124319569D01*
X108395528Y-124432089D01*
X108304592Y-124527379D01*
X108205616Y-124607232D01*
X108097616Y-124673442D01*
X108060298Y-124692375D01*
X107962134Y-124734585D01*
X107853091Y-124772581D01*
X107740067Y-124804704D01*
X107629961Y-124829293D01*
X107529669Y-124844689D01*
X107446089Y-124849232D01*
X107416181Y-124847342D01*
X107397757Y-124843580D01*
X107397814Y-124836990D01*
X107419342Y-124825364D01*
X107465329Y-124806494D01*
X107478385Y-124801400D01*
X107644055Y-124727373D01*
X107796729Y-124639955D01*
X107931550Y-124542437D01*
X108043659Y-124438109D01*
X108084482Y-124390967D01*
X108137620Y-124322781D01*
X108171997Y-124274415D01*
X108187591Y-124246440D01*
X108184381Y-124239426D01*
X108162346Y-124253946D01*
X108121465Y-124290570D01*
X108086956Y-124324317D01*
X108001100Y-124404177D01*
X107926247Y-124460550D01*
X107876051Y-124488641D01*
X107837964Y-124505599D01*
X107804531Y-124517030D01*
X107768550Y-124523938D01*
X107722821Y-124527325D01*
X107660140Y-124528192D01*
X107594878Y-124527765D01*
X107500618Y-124525011D01*
X107417945Y-124519092D01*
X107353934Y-124510613D01*
X107328703Y-124504923D01*
X107256080Y-124483999D01*
X107365925Y-124395596D01*
X107526396Y-124253712D01*
X107659249Y-124107997D01*
X107766615Y-123955859D01*
X107839157Y-123820142D01*
X107880513Y-123722719D01*
X107911652Y-123628272D01*
X107934771Y-123527881D01*
X107952066Y-123412624D01*
X107961389Y-123323745D01*
X107972026Y-123166752D01*
X107972448Y-123036342D01*
X107962564Y-122931095D01*
X107942287Y-122849594D01*
X107929892Y-122820575D01*
X107873970Y-122736879D01*
X107794159Y-122656894D01*
X107696329Y-122585381D01*
X107586349Y-122527099D01*
X107549282Y-122511919D01*
X107520166Y-122503908D01*
X107516307Y-122511601D01*
X107537684Y-122534972D01*
X107584274Y-122573989D01*
X107614899Y-122597742D01*
X107726677Y-122691555D01*
X107814921Y-122784049D01*
X107877355Y-122872725D01*
X107892809Y-122902659D01*
X107911412Y-122945146D01*
X107922512Y-122975143D01*
X107924005Y-122984651D01*
X107911554Y-122978088D01*
X107884494Y-122956264D01*
X107861341Y-122935535D01*
X107724707Y-122828479D01*
X107566828Y-122739701D01*
X107390955Y-122670544D01*
X107200334Y-122622351D01*
X107052190Y-122601024D01*
X106912543Y-122593557D01*
X106759940Y-122596637D01*
X106602094Y-122609322D01*
X106446719Y-122630669D01*
X106301526Y-122659734D01*
X106174229Y-122695574D01*
X106122059Y-122714780D01*
X106075589Y-122733221D01*
X106041297Y-122746119D01*
X106027406Y-122750491D01*
X106035064Y-122740921D01*
X106060607Y-122714739D01*
X106100232Y-122675736D01*
X106150137Y-122627703D01*
X106160249Y-122618076D01*
X106211606Y-122568002D01*
X106253049Y-122525165D01*
X106280808Y-122493646D01*
X106291115Y-122477528D01*
X106290844Y-122476595D01*
X106273026Y-122476612D01*
X106234078Y-122486014D01*
X106180420Y-122502892D01*
X106118475Y-122525337D01*
X106092551Y-122535552D01*
X106082379Y-122534532D01*
X106090352Y-122515006D01*
X106117241Y-122475275D01*
X106124226Y-122465743D01*
X106205052Y-122337113D01*
X106271410Y-122192935D01*
X106318179Y-122045100D01*
X106330332Y-121987169D01*
X106332767Y-121969588D01*
X106331081Y-121959838D01*
X106322789Y-121959865D01*
X106305409Y-121971613D01*
X106276458Y-121997026D01*
X106233454Y-122038051D01*
X106173914Y-122096631D01*
X106111756Y-122158388D01*
X106032329Y-122236641D01*
X105971462Y-122294689D01*
X105927367Y-122334067D01*
X105898255Y-122356309D01*
X105882337Y-122362950D01*
X105878019Y-122358824D01*
X105882310Y-122324011D01*
X105903160Y-122269782D01*
X105938480Y-122199936D01*
X105986184Y-122118274D01*
X106044185Y-122028595D01*
X106110395Y-121934700D01*
X106112664Y-121931616D01*
X106156129Y-121869750D01*
X106202323Y-121799106D01*
X106248723Y-121724144D01*
X106292806Y-121649323D01*
X106332048Y-121579100D01*
X106363926Y-121517935D01*
X106385918Y-121470285D01*
X106395499Y-121440609D01*
X106394544Y-121433542D01*
X106383223Y-121442153D01*
X106355195Y-121469505D01*
X106313715Y-121512245D01*
X106262041Y-121567022D01*
X106206483Y-121627146D01*
X106145816Y-121692372D01*
X106089861Y-121750619D01*
X106042526Y-121797963D01*
X106007721Y-121830483D01*
X105990598Y-121843707D01*
X105970717Y-121853069D01*
X105969449Y-121848759D01*
X105987492Y-121827144D01*
X105995506Y-121818159D01*
X106081361Y-121707845D01*
X106162441Y-121576291D01*
X106234084Y-121432036D01*
X106291634Y-121283616D01*
X106298089Y-121263665D01*
X106328761Y-121145817D01*
X106355241Y-121002624D01*
X106377448Y-120838230D01*
X106395301Y-120656783D01*
X106408721Y-120462429D01*
X106417626Y-120259313D01*
X106421936Y-120051582D01*
X106421572Y-119843382D01*
X106416452Y-119638860D01*
X106406496Y-119442160D01*
X106391624Y-119257430D01*
X106371756Y-119088816D01*
X106346810Y-118940463D01*
X106343449Y-118924113D01*
X106326114Y-118848809D01*
X106320381Y-118827337D01*
X107632097Y-118827337D01*
X107638113Y-118998557D01*
X107645378Y-119107241D01*
X107660433Y-119206179D01*
X107685336Y-119300982D01*
X107722143Y-119397263D01*
X107772912Y-119500632D01*
X107839700Y-119616702D01*
X107900095Y-119713211D01*
X108003254Y-119884460D01*
X108082591Y-120039605D01*
X108138593Y-120179742D01*
X108171743Y-120305969D01*
X108177179Y-120340337D01*
X108186383Y-120386140D01*
X108197150Y-120409307D01*
X108206703Y-120408021D01*
X108212265Y-120380465D01*
X108212756Y-120363601D01*
X108219020Y-120277679D01*
X108236159Y-120183046D01*
X108261696Y-120088134D01*
X108293155Y-120001375D01*
X108328058Y-119931200D01*
X108348336Y-119902106D01*
X108381227Y-119866971D01*
X108419381Y-119837531D01*
X108468234Y-119811015D01*
X108533221Y-119784648D01*
X108619779Y-119755656D01*
X108659415Y-119743387D01*
X108817320Y-119688829D01*
X108949198Y-119628423D01*
X109058612Y-119559650D01*
X109149124Y-119479988D01*
X109224299Y-119386918D01*
X109270370Y-119311218D01*
X109288276Y-119276954D01*
X109302485Y-119251568D01*
X109317458Y-119233995D01*
X109337653Y-119223173D01*
X109367533Y-119218036D01*
X109411557Y-119217521D01*
X109474186Y-119220563D01*
X109559880Y-119226099D01*
X109612983Y-119229482D01*
X109692568Y-119233025D01*
X109768806Y-119233970D01*
X109832735Y-119232350D01*
X109873534Y-119228529D01*
X109907734Y-119222477D01*
X109922672Y-119218282D01*
X109915829Y-119214964D01*
X109884685Y-119211542D01*
X109826720Y-119207037D01*
X109816284Y-119206262D01*
X109750678Y-119200022D01*
X109698435Y-119190451D01*
X109648596Y-119174344D01*
X109590205Y-119148494D01*
X109548288Y-119127867D01*
X109475685Y-119089238D01*
X109423024Y-119054873D01*
X109382262Y-119018864D01*
X109351736Y-118983538D01*
X109295706Y-118913231D01*
X109252241Y-118861701D01*
X109216104Y-118823856D01*
X109182055Y-118794606D01*
X109144856Y-118768861D01*
X109107792Y-118746480D01*
X108994421Y-118692465D01*
X108883895Y-118665949D01*
X108770468Y-118665918D01*
X108708188Y-118676086D01*
X108619655Y-118698223D01*
X108550051Y-118725089D01*
X108488543Y-118762365D01*
X108424296Y-118815734D01*
X108401720Y-118836824D01*
X108310715Y-118923421D01*
X108278402Y-118893065D01*
X108256526Y-118864988D01*
X108228520Y-118818806D01*
X108199944Y-118763800D01*
X108196105Y-118755691D01*
X108170640Y-118704877D01*
X108152975Y-118679055D01*
X108142863Y-118678994D01*
X108140056Y-118705467D01*
X108144307Y-118759243D01*
X108155366Y-118841094D01*
X108159637Y-118869071D01*
X108180304Y-119030501D01*
X108188480Y-119167586D01*
X108184332Y-119279901D01*
X108168024Y-119367019D01*
X108139723Y-119428517D01*
X108099594Y-119463969D01*
X108047801Y-119472950D01*
X107984512Y-119455034D01*
X107940844Y-119431043D01*
X107866596Y-119371055D01*
X107802054Y-119290404D01*
X107745813Y-119186672D01*
X107696468Y-119057445D01*
X107668595Y-118962994D01*
X107632097Y-118827337D01*
X106320381Y-118827337D01*
X106306786Y-118776416D01*
X106287264Y-118712533D01*
X106269343Y-118662755D01*
X106254822Y-118632681D01*
X106247847Y-118626341D01*
X106238841Y-118639704D01*
X106226091Y-118675023D01*
X106212115Y-118725141D01*
X106209878Y-118734283D01*
X106162511Y-118916139D01*
X106113636Y-119073687D01*
X106063724Y-119205779D01*
X106013248Y-119311267D01*
X105962678Y-119389005D01*
X105924573Y-119428737D01*
X105864945Y-119466435D01*
X105812670Y-119475385D01*
X105767955Y-119455747D01*
X105731006Y-119407681D01*
X105702029Y-119331347D01*
X105683497Y-119242272D01*
X105675193Y-119128756D01*
X105684984Y-119006478D01*
X105713506Y-118870283D01*
X105740953Y-118776347D01*
X105759302Y-118716424D01*
X105772731Y-118667976D01*
X105779559Y-118637355D01*
X105779679Y-118630036D01*
X105769133Y-118638399D01*
X105746818Y-118666002D01*
X105717269Y-118707167D01*
X105712836Y-118713656D01*
X105678099Y-118761532D01*
X105645133Y-118801481D01*
X105620981Y-118824979D01*
X105620677Y-118825194D01*
X105600179Y-118836358D01*
X105579472Y-118835714D01*
X105549472Y-118821275D01*
X105520144Y-118803208D01*
X105419210Y-118752539D01*
X105308351Y-118723986D01*
X105190029Y-118715673D01*
X105084524Y-118721691D01*
X104994671Y-118742053D01*
X104908408Y-118780218D01*
X104855861Y-118811492D01*
X104788710Y-118857958D01*
X104741325Y-118900498D01*
X104705970Y-118946606D01*
X104692136Y-118970131D01*
X104666735Y-118996963D01*
X104621916Y-119026498D01*
X104564152Y-119056216D01*
X104499917Y-119083599D01*
X104435683Y-119106129D01*
X104377923Y-119121285D01*
X104333112Y-119126549D01*
X104307947Y-119119633D01*
X104302409Y-119094657D01*
X104311878Y-119049796D01*
X104312353Y-119048315D01*
X104323773Y-119018008D01*
X104346549Y-118962185D01*
X104379952Y-118882544D01*
X104423253Y-118780784D01*
X104475722Y-118658603D01*
X104536631Y-118517698D01*
X104605249Y-118359769D01*
X104680849Y-118186514D01*
X104758827Y-118008463D01*
X104856700Y-117785278D01*
X104943193Y-117587875D01*
X105018938Y-117414790D01*
X105084565Y-117264558D01*
X105140708Y-117135716D01*
X105187998Y-117026798D01*
X105227067Y-116936340D01*
X105258546Y-116862878D01*
X105283069Y-116804947D01*
X105301266Y-116761083D01*
X105313770Y-116729822D01*
X105321213Y-116709698D01*
X105324226Y-116699248D01*
X105324362Y-116697888D01*
X105313008Y-116701939D01*
X105282642Y-116719531D01*
X105238807Y-116747362D01*
X105216420Y-116762176D01*
X105164816Y-116796538D01*
X105120931Y-116825425D01*
X105091971Y-116844106D01*
X105086623Y-116847400D01*
X105087028Y-116842392D01*
X105104409Y-116819114D01*
X105135744Y-116781358D01*
X105176473Y-116734646D01*
X105235462Y-116665143D01*
X105300405Y-116583702D01*
X105361041Y-116503364D01*
X105386750Y-116467380D01*
X105426291Y-116408976D01*
X105469031Y-116343160D01*
X105512118Y-116274661D01*
X105552706Y-116208205D01*
X105587943Y-116148519D01*
X105614982Y-116100332D01*
X105630972Y-116068370D01*
X105633780Y-116057518D01*
X105621956Y-116065623D01*
X105592064Y-116090587D01*
X105547931Y-116129091D01*
X105493387Y-116177816D01*
X105458360Y-116209571D01*
X105339145Y-116316788D01*
X105201060Y-116438542D01*
X105048641Y-116570965D01*
X104886428Y-116710189D01*
X104718957Y-116852348D01*
X104550766Y-116993572D01*
X104386394Y-117129996D01*
X104230378Y-117257750D01*
X104192827Y-117288193D01*
X104070090Y-117387051D01*
X103954820Y-117479082D01*
X103849050Y-117562715D01*
X103754817Y-117636377D01*
X103674156Y-117698497D01*
X103609102Y-117747501D01*
X103561691Y-117781818D01*
X103533958Y-117799877D01*
X103527439Y-117802141D01*
X103532560Y-117787937D01*
X103553357Y-117757550D01*
X103585636Y-117716977D01*
X103593459Y-117707748D01*
X103670555Y-117614241D01*
X103761781Y-117497381D01*
X103865675Y-117359181D01*
X103980770Y-117201657D01*
X104105604Y-117026821D01*
X104238712Y-116836688D01*
X104378629Y-116633272D01*
X104435673Y-116549377D01*
X104527117Y-116415086D01*
X104604215Y-116303468D01*
X104668800Y-116212199D01*
X104722705Y-116138954D01*
X104767765Y-116081410D01*
X104805812Y-116037241D01*
X104838681Y-116004124D01*
X104868206Y-115979734D01*
X104896218Y-115961747D01*
X104901479Y-115958884D01*
X104956716Y-115919393D01*
X104987469Y-115872063D01*
X105017487Y-115776042D01*
X105037045Y-115663186D01*
X105046799Y-115528903D01*
X105048219Y-115447619D01*
X105047463Y-115358733D01*
X105044131Y-115290889D01*
X105037246Y-115235394D01*
X105025828Y-115183556D01*
X105013874Y-115142402D01*
X104951117Y-114989971D01*
X104861094Y-114848954D01*
X104789107Y-114764506D01*
X104751507Y-114722913D01*
X104733094Y-114697153D01*
X104735157Y-114687061D01*
X104758983Y-114692473D01*
X104805859Y-114713225D01*
X104877074Y-114749153D01*
X104883478Y-114752479D01*
X104979975Y-114812071D01*
X105061651Y-114884652D01*
X105133487Y-114975627D01*
X105200464Y-115090403D01*
X105207382Y-115103986D01*
X105239228Y-115164067D01*
X105260586Y-115198178D01*
X105271511Y-115208197D01*
X105272057Y-115196002D01*
X105262278Y-115163472D01*
X105242231Y-115112485D01*
X105211969Y-115044919D01*
X105205248Y-115030737D01*
X105134956Y-114909435D01*
X105041668Y-114787295D01*
X104930715Y-114668988D01*
X104807428Y-114559184D01*
X104677138Y-114462554D01*
X104545177Y-114383768D01*
X104416875Y-114327496D01*
X104393823Y-114319882D01*
X104261603Y-114292219D01*
X104167516Y-114286851D01*
X104113065Y-114285519D01*
X104073791Y-114282441D01*
X104055883Y-114278191D01*
X104055851Y-114276491D01*
X104084580Y-114261385D01*
X104135675Y-114245585D01*
X104201814Y-114230692D01*
X104275676Y-114218306D01*
X104349937Y-114210030D01*
X104364569Y-114208984D01*
X104527793Y-114212732D01*
X104698696Y-114243648D01*
X104874579Y-114300990D01*
X105052746Y-114384016D01*
X105103780Y-114412402D01*
X105153149Y-114439693D01*
X105191921Y-114458929D01*
X105213643Y-114466984D01*
X105215930Y-114466700D01*
X105210395Y-114452812D01*
X105183759Y-114425769D01*
X105139990Y-114388483D01*
X105083057Y-114343866D01*
X105016928Y-114294830D01*
X104945571Y-114244290D01*
X104872955Y-114195157D01*
X104803048Y-114150344D01*
X104739820Y-114112763D01*
X104715749Y-114099592D01*
X104672146Y-114074742D01*
X104643959Y-114055119D01*
X104636398Y-114044435D01*
X104637454Y-114043802D01*
X104668142Y-114044962D01*
X104718001Y-114059391D01*
X104781060Y-114084403D01*
X104851349Y-114117312D01*
X104922899Y-114155431D01*
X104989737Y-114196073D01*
X105016637Y-114214434D01*
X105054525Y-114239745D01*
X105072226Y-114247190D01*
X105069427Y-114236330D01*
X105045812Y-114206727D01*
X105001068Y-114157945D01*
X104934882Y-114089544D01*
X104906242Y-114060535D01*
X104783838Y-113941440D01*
X104675666Y-113845700D01*
X104579774Y-113771676D01*
X104505488Y-113724049D01*
X104437593Y-113690713D01*
X104359797Y-113660955D01*
X104282394Y-113638060D01*
X104215676Y-113625313D01*
X104191246Y-113623762D01*
X104149998Y-113619890D01*
X104128202Y-113610390D01*
X104129378Y-113598432D01*
X104152050Y-113588436D01*
X104199211Y-113581512D01*
X104266427Y-113578739D01*
X104344318Y-113579773D01*
X104423503Y-113584268D01*
X104494601Y-113591880D01*
X104548233Y-113602265D01*
X104551149Y-113603104D01*
X104633143Y-113633318D01*
X104736859Y-113681491D01*
X104860860Y-113746865D01*
X105003709Y-113828680D01*
X105163969Y-113926179D01*
X105168032Y-113928715D01*
X105183010Y-113935335D01*
X105178044Y-113924528D01*
X105155547Y-113898530D01*
X105117932Y-113859583D01*
X105067613Y-113809926D01*
X105007002Y-113751798D01*
X104938513Y-113687438D01*
X104864558Y-113619087D01*
X104787552Y-113548983D01*
X104709907Y-113479366D01*
X104634036Y-113412476D01*
X104562352Y-113350551D01*
X104497269Y-113295833D01*
X104441200Y-113250559D01*
X104418162Y-113232813D01*
X104304243Y-113154444D01*
X104185083Y-113085928D01*
X104069558Y-113032022D01*
X103991830Y-113004393D01*
X103947317Y-112989568D01*
X103928429Y-112978834D01*
X103935985Y-112971968D01*
X103970806Y-112968750D01*
X104033712Y-112968959D01*
X104112731Y-112971791D01*
X104186958Y-112976153D01*
X104242085Y-112983082D01*
X104288790Y-112994996D01*
X104337750Y-113014311D01*
X104373376Y-113030805D01*
X104468917Y-113083172D01*
X104575421Y-113154789D01*
X104694670Y-113247004D01*
X104828447Y-113361165D01*
X104920809Y-113444796D01*
X105024330Y-113540116D01*
X105106969Y-113615629D01*
X105169545Y-113671917D01*
X105212877Y-113709564D01*
X105237783Y-113729153D01*
X105245081Y-113731268D01*
X105235590Y-113716493D01*
X105210127Y-113685411D01*
X105169511Y-113638606D01*
X105129997Y-113593985D01*
X104928424Y-113368097D01*
X104745845Y-113164788D01*
X104582074Y-112983858D01*
X104436927Y-112825106D01*
X104310218Y-112688335D01*
X104201761Y-112573344D01*
X104111371Y-112479935D01*
X104038862Y-112407907D01*
X103984049Y-112357061D01*
X103962053Y-112338588D01*
X103887610Y-112279440D01*
X103947164Y-112290288D01*
X103997311Y-112301738D01*
X104056998Y-112318486D01*
X104084884Y-112327371D01*
X104127450Y-112340371D01*
X104155840Y-112346574D01*
X104163049Y-112345678D01*
X104153948Y-112329041D01*
X104129135Y-112294558D01*
X104092351Y-112246933D01*
X104047334Y-112190867D01*
X103997823Y-112131062D01*
X103947557Y-112072221D01*
X103926917Y-112048698D01*
X103854460Y-111972353D01*
X103777784Y-111901004D01*
X103702801Y-111839565D01*
X103635422Y-111792953D01*
X103591697Y-111769945D01*
X103517718Y-111749186D01*
X103452199Y-111753102D01*
X103394229Y-111782570D01*
X103342898Y-111838467D01*
X103297294Y-111921669D01*
X103256506Y-112033053D01*
X103233842Y-112114261D01*
X103191704Y-112304659D01*
X103155391Y-112519834D01*
X103125355Y-112755273D01*
X103102049Y-113006462D01*
X103085925Y-113268891D01*
X103077434Y-113538046D01*
X103076182Y-113687462D01*
X103081181Y-113963670D01*
X103097072Y-114217571D01*
X103125196Y-114455064D01*
X103166890Y-114682043D01*
X103223493Y-114904407D01*
X103296343Y-115128051D01*
X103386779Y-115358871D01*
X103496138Y-115602766D01*
X103524278Y-115661683D01*
X103561835Y-115740106D01*
X103594435Y-115809313D01*
X103620021Y-115864843D01*
X103636534Y-115902236D01*
X103641947Y-115916838D01*
X103628530Y-115922805D01*
X103594064Y-115926008D01*
X103563782Y-115926103D01*
X103485617Y-115924055D01*
X103488968Y-115976165D01*
X103491387Y-116013756D01*
X103495107Y-116071493D01*
X103499509Y-116139808D01*
X103501928Y-116177329D01*
X103504476Y-116264556D01*
X103501228Y-116345982D01*
X103492927Y-116416181D01*
X103480317Y-116469728D01*
X103464141Y-116501198D01*
X103456851Y-116506383D01*
X103434410Y-116504989D01*
X103393049Y-116494529D01*
X103341403Y-116477221D01*
X103337432Y-116475737D01*
X103285804Y-116456992D01*
X103256747Y-116448927D01*
X103245296Y-116450888D01*
X103246485Y-116462222D01*
X103247108Y-116463847D01*
X103285039Y-116591260D01*
X103307582Y-116741885D01*
X103314397Y-116899260D01*
X103312847Y-116992318D01*
X103307208Y-117075501D01*
X103295996Y-117153031D01*
X103277729Y-117229130D01*
X103250924Y-117308020D01*
X103214097Y-117393921D01*
X103165765Y-117491056D01*
X103104447Y-117603647D01*
X103028657Y-117735914D01*
X103008121Y-117771104D01*
X102920990Y-117917595D01*
X102842522Y-118043738D01*
X102768365Y-118155967D01*
X102694168Y-118260716D01*
X102615577Y-118364421D01*
X102556614Y-118438605D01*
X102489694Y-118521521D01*
X102439493Y-118584004D01*
X102404004Y-118628773D01*
X102381218Y-118658545D01*
X102369129Y-118676041D01*
X102365730Y-118683978D01*
X102369012Y-118685074D01*
X102376802Y-118682122D01*
X102399282Y-118672621D01*
X102442280Y-118654644D01*
X102498804Y-118631108D01*
X102540189Y-118613920D01*
X102614285Y-118582669D01*
X102691485Y-118549280D01*
X102759088Y-118519274D01*
X102781394Y-118509086D01*
X102832945Y-118487619D01*
X102875891Y-118474025D01*
X102901701Y-118470950D01*
X102903074Y-118471347D01*
X102927961Y-118489074D01*
X102928633Y-118515442D01*
X102904457Y-118552573D01*
X102867556Y-118590741D01*
X102822443Y-118638164D01*
X102771731Y-118698593D01*
X102725627Y-118759796D01*
X102721239Y-118766104D01*
X102687128Y-118817943D01*
X102646650Y-118883184D01*
X102601842Y-118958139D01*
X102554740Y-119039120D01*
X102507381Y-119122440D01*
X102461803Y-119204411D01*
X102420041Y-119281346D01*
X102384134Y-119349557D01*
X102356117Y-119405356D01*
X102338028Y-119445056D01*
X102331904Y-119464969D01*
X102334642Y-119465997D01*
X102355549Y-119452641D01*
X102394006Y-119427509D01*
X102442781Y-119395334D01*
X102458301Y-119385045D01*
X102525658Y-119341261D01*
X102602183Y-119292889D01*
X102671343Y-119250380D01*
X102671530Y-119250267D01*
X102727289Y-119216597D01*
X102777964Y-119185798D01*
X102814482Y-119163391D01*
X102820416Y-119159698D01*
X102867775Y-119137742D01*
X102903391Y-119136743D01*
X102921748Y-119154468D01*
X102914764Y-119175703D01*
X102884808Y-119213911D01*
X102832678Y-119268134D01*
X102802515Y-119297206D01*
X102717274Y-119383488D01*
X102633244Y-119480510D01*
X102548031Y-119591584D01*
X102459246Y-119720022D01*
X102364495Y-119869134D01*
X102261388Y-120042232D01*
X102249309Y-120063094D01*
X102206318Y-120137537D01*
X102272755Y-120083787D01*
X102350348Y-120025770D01*
X102445351Y-119962078D01*
X102547913Y-119899020D01*
X102648185Y-119842905D01*
X102651853Y-119840976D01*
X102707405Y-119811341D01*
X102757389Y-119783818D01*
X102791964Y-119763836D01*
X102794683Y-119762158D01*
X102829939Y-119747715D01*
X102857959Y-119747476D01*
X102877923Y-119767508D01*
X102881186Y-119796347D01*
X102867081Y-119819451D01*
X102861388Y-119822396D01*
X102840739Y-119839885D01*
X102808673Y-119878482D01*
X102768394Y-119933354D01*
X102723103Y-119999665D01*
X102676002Y-120072582D01*
X102630293Y-120147271D01*
X102589179Y-120218897D01*
X102555861Y-120282627D01*
X102554021Y-120286423D01*
X102526033Y-120346503D01*
X102493354Y-120419877D01*
X102457777Y-120502155D01*
X102421096Y-120588950D01*
X102385105Y-120675872D01*
X102351597Y-120758534D01*
X102322365Y-120832547D01*
X102299205Y-120893522D01*
X102283909Y-120937071D01*
X102278271Y-120958806D01*
X102278578Y-120960315D01*
X102292864Y-120955466D01*
X102324894Y-120936781D01*
X102368375Y-120908003D01*
X102379127Y-120900496D01*
X102442983Y-120857366D01*
X102514755Y-120811670D01*
X102569966Y-120778539D01*
X102622501Y-120746798D01*
X102668646Y-120716243D01*
X102698731Y-120693289D01*
X102699484Y-120692601D01*
X102733350Y-120672757D01*
X102761988Y-120674852D01*
X102777494Y-120697407D01*
X102778407Y-120707361D01*
X102768230Y-120733189D01*
X102742374Y-120767941D01*
X102725173Y-120785994D01*
X102650770Y-120870406D01*
X102581920Y-120975592D01*
X102517683Y-121103544D01*
X102457118Y-121256254D01*
X102399286Y-121435714D01*
X102370840Y-121537068D01*
X102318380Y-121741887D01*
X102277439Y-121924607D01*
X102247209Y-122090233D01*
X102226880Y-122243773D01*
X102215645Y-122390231D01*
X102212639Y-122516839D01*
X102212639Y-122678972D01*
X102261027Y-122647326D01*
X102364862Y-122583126D01*
X102447868Y-122539962D01*
X102509983Y-122517864D01*
X102541734Y-122515012D01*
X102562533Y-122517963D01*
X102569600Y-122523585D01*
X102560127Y-122535010D01*
X102531305Y-122555371D01*
X102480326Y-122587802D01*
X102471547Y-122593305D01*
X102336860Y-122681952D01*
X102227864Y-122764073D01*
X102142073Y-122842772D01*
X102077000Y-122921151D01*
X102030159Y-123002311D01*
X101999063Y-123089354D01*
X101981224Y-123185383D01*
X101978840Y-123207933D01*
X101972701Y-123254415D01*
X101965205Y-123284240D01*
X101958144Y-123290958D01*
X101947089Y-123265472D01*
X101936785Y-123215146D01*
X101927517Y-123144914D01*
X101919571Y-123059709D01*
X101913234Y-122964464D01*
X101908793Y-122864114D01*
X101906532Y-122763592D01*
X101906739Y-122667832D01*
X101909699Y-122581767D01*
X101913837Y-122527162D01*
X101939613Y-122325722D01*
X101976053Y-122138966D01*
X102025452Y-121959330D01*
X102090108Y-121779250D01*
X102172314Y-121591163D01*
X102239233Y-121455180D01*
X102286976Y-121361586D01*
X102335057Y-121267030D01*
X102379998Y-121178373D01*
X102418324Y-121102472D01*
X102446556Y-121046187D01*
X102446637Y-121046024D01*
X102478871Y-120983269D01*
X102510103Y-120925750D01*
X102535621Y-120882008D01*
X102545198Y-120867361D01*
X102551628Y-120852976D01*
X102538072Y-120856958D01*
X102506608Y-120877680D01*
X102459319Y-120913515D01*
X102398284Y-120962838D01*
X102325586Y-121024022D01*
X102243303Y-121095441D01*
X102170352Y-121160311D01*
X102043588Y-121279621D01*
X101939611Y-121390133D01*
X101854633Y-121496479D01*
X101784865Y-121603292D01*
X101740508Y-121685954D01*
X101674538Y-121819952D01*
X101683514Y-121731393D01*
X101701981Y-121626797D01*
X101737989Y-121506966D01*
X101792051Y-121370802D01*
X101864677Y-121217205D01*
X101956380Y-121045076D01*
X102067671Y-120853316D01*
X102169268Y-120688034D01*
X102228100Y-120594198D01*
X102285853Y-120501866D01*
X102339278Y-120416248D01*
X102385127Y-120342551D01*
X102420151Y-120285988D01*
X102433611Y-120264090D01*
X102474789Y-120198739D01*
X102524489Y-120122725D01*
X102573839Y-120049555D01*
X102588050Y-120029028D01*
X102624179Y-119976598D01*
X102652850Y-119933708D01*
X102670427Y-119905875D01*
X102674186Y-119898371D01*
X102662865Y-119897613D01*
X102631516Y-119912000D01*
X102584064Y-119938981D01*
X102524433Y-119976008D01*
X102456549Y-120020533D01*
X102384334Y-120070007D01*
X102311715Y-120121882D01*
X102242614Y-120173609D01*
X102205195Y-120202939D01*
X102085721Y-120294136D01*
X101980147Y-120364561D01*
X101883721Y-120416651D01*
X101791690Y-120452845D01*
X101699302Y-120475582D01*
X101662953Y-120481222D01*
X101583821Y-120491719D01*
X101715845Y-120358732D01*
X101770612Y-120299759D01*
X101836794Y-120222433D01*
X101909204Y-120133118D01*
X101982650Y-120038178D01*
X102036276Y-119965756D01*
X102099514Y-119880509D01*
X102164662Y-119796233D01*
X102227122Y-119718625D01*
X102282295Y-119653384D01*
X102325584Y-119606209D01*
X102329666Y-119602127D01*
X102373393Y-119557913D01*
X102407014Y-119521901D01*
X102426263Y-119498781D01*
X102429029Y-119492868D01*
X102410081Y-119493555D01*
X102371312Y-119509052D01*
X102317004Y-119536690D01*
X102251442Y-119573796D01*
X102178909Y-119617701D01*
X102103689Y-119665733D01*
X102030065Y-119715221D01*
X101962322Y-119763494D01*
X101904742Y-119807881D01*
X101861610Y-119845711D01*
X101858953Y-119848333D01*
X101824373Y-119880463D01*
X101798320Y-119900276D01*
X101787713Y-119903682D01*
X101789049Y-119886031D01*
X101802670Y-119848157D01*
X101825909Y-119795585D01*
X101856096Y-119733842D01*
X101890563Y-119668454D01*
X101926641Y-119604946D01*
X101951583Y-119564325D01*
X102003305Y-119486997D01*
X102069291Y-119393785D01*
X102144457Y-119291437D01*
X102223716Y-119186701D01*
X102301982Y-119086326D01*
X102374169Y-118997059D01*
X102419373Y-118943627D01*
X102462464Y-118892980D01*
X102497119Y-118850255D01*
X102519294Y-118820569D01*
X102525328Y-118809630D01*
X102511411Y-118805375D01*
X102473427Y-118802553D01*
X102417064Y-118801394D01*
X102348007Y-118802128D01*
X102342943Y-118802254D01*
X102258800Y-118802566D01*
X102172648Y-118799683D01*
X102090043Y-118794151D01*
X102016538Y-118786515D01*
X101957691Y-118777321D01*
X101919054Y-118767114D01*
X101906857Y-118759424D01*
X101913003Y-118744817D01*
X101938519Y-118726329D01*
X101941600Y-118724691D01*
X101997657Y-118690831D01*
X102069017Y-118640369D01*
X102149996Y-118577822D01*
X102234910Y-118507712D01*
X102318074Y-118434559D01*
X102381728Y-118374739D01*
X102550408Y-118196608D01*
X102692094Y-118017370D01*
X102806040Y-117838135D01*
X102891504Y-117660013D01*
X102926447Y-117561804D01*
X102950947Y-117470032D01*
X102959706Y-117394528D01*
X102951696Y-117325671D01*
X102925887Y-117253840D01*
X102885193Y-117176256D01*
X102831036Y-117073562D01*
X102791647Y-116977059D01*
X102765144Y-116878848D01*
X102749644Y-116771027D01*
X102743263Y-116645695D01*
X102742875Y-116579155D01*
X102745043Y-116470557D01*
X102751498Y-116377774D01*
X102763874Y-116292833D01*
X102783808Y-116207765D01*
X102812937Y-116114596D01*
X102852896Y-116005356D01*
X102869389Y-115962756D01*
X102896553Y-115890759D01*
X102912710Y-115840533D01*
X102919146Y-115806727D01*
X102917152Y-115783993D01*
X102914205Y-115776648D01*
X102902598Y-115738565D01*
X102891670Y-115673687D01*
X102881517Y-115584991D01*
X102872234Y-115475453D01*
X102863916Y-115348050D01*
X102856657Y-115205759D01*
X102850553Y-115051555D01*
X102845698Y-114888416D01*
X102842188Y-114719317D01*
X102840118Y-114547237D01*
X102839582Y-114375151D01*
X102840676Y-114206035D01*
X102843494Y-114042867D01*
X102848132Y-113888623D01*
X102851442Y-113809734D01*
X102866561Y-113524044D01*
X102884686Y-113247336D01*
X102905477Y-112983385D01*
X102928598Y-112735969D01*
X102953709Y-112508867D01*
X102980472Y-112305853D01*
X102994366Y-112214568D01*
X103031314Y-112017635D01*
X103075953Y-111837756D01*
X103127432Y-111676883D01*
X103184899Y-111536964D01*
X103247501Y-111419951D01*
X103314387Y-111327794D01*
X103384704Y-111262444D01*
X103419624Y-111241068D01*
X103502179Y-111214944D01*
X103595219Y-111213122D01*
X103692403Y-111235336D01*
X103738723Y-111254487D01*
X103818938Y-111302035D01*
X103912304Y-111373547D01*
X104017283Y-111467084D01*
X104132334Y-111580710D01*
X104255919Y-111712487D01*
X104386499Y-111860476D01*
X104522534Y-112022741D01*
X104662485Y-112197344D01*
X104804812Y-112382347D01*
X104947977Y-112575813D01*
X105090439Y-112775805D01*
X105230661Y-112980384D01*
X105367101Y-113187613D01*
X105498222Y-113395554D01*
X105622484Y-113602271D01*
X105672353Y-113688428D01*
X105728512Y-113789426D01*
X105790849Y-113906308D01*
X105856320Y-114032959D01*
X105921884Y-114163263D01*
X105984496Y-114291106D01*
X106041115Y-114410373D01*
X106088697Y-114514947D01*
X106119411Y-114586853D01*
X106184395Y-114758284D01*
X106235545Y-114919262D01*
X106271082Y-115064012D01*
X106278575Y-115104235D01*
X106290209Y-115219571D01*
X106288624Y-115341786D01*
X106274957Y-115463514D01*
X106250342Y-115577390D01*
X106215914Y-115676049D01*
X106180314Y-115741669D01*
X106157955Y-115778556D01*
X106155107Y-115794352D01*
X106170635Y-115789419D01*
X106203400Y-115764123D01*
X106252267Y-115718825D01*
X106252529Y-115718570D01*
X106343046Y-115610341D01*
X106408948Y-115486219D01*
X106450399Y-115345727D01*
X106467567Y-115188384D01*
X106466864Y-115097736D01*
X106463470Y-115030582D01*
X106459765Y-114973238D01*
X106456272Y-114933076D01*
X106454217Y-114919072D01*
X106455687Y-114913232D01*
X106465181Y-114908425D01*
X106485370Y-114904524D01*
X106518926Y-114901402D01*
X106568522Y-114898930D01*
X106636827Y-114896982D01*
X106726515Y-114895428D01*
X106840256Y-114894142D01*
X106980723Y-114892995D01*
X107003055Y-114892836D01*
X107151722Y-114891984D01*
X107272982Y-114891767D01*
X107369201Y-114892248D01*
X107442744Y-114893492D01*
X107495976Y-114895561D01*
X107531262Y-114898519D01*
X107550968Y-114902429D01*
X107557459Y-114907356D01*
X107557480Y-114907725D01*
X107553635Y-114931702D01*
X107543914Y-114973641D01*
X107534784Y-115008404D01*
X107514573Y-115111886D01*
X107503766Y-115235118D01*
X107502208Y-115369650D01*
X107509740Y-115507031D01*
X107526206Y-115638813D01*
X107548498Y-115745506D01*
X107555951Y-115772877D01*
X107561405Y-115786816D01*
X107565400Y-115784399D01*
X107568475Y-115762705D01*
X107571170Y-115718809D01*
X107574024Y-115649788D01*
X107575986Y-115596505D01*
X107580073Y-115502768D01*
X107585496Y-115429475D01*
X107593666Y-115367295D01*
X107605994Y-115306894D01*
X107623889Y-115238941D01*
X107625725Y-115232600D01*
X108708145Y-115232600D01*
X108709266Y-115248500D01*
X108718617Y-115240216D01*
X108735460Y-115205837D01*
X108748183Y-115173688D01*
X108813616Y-115033893D01*
X108897263Y-114917099D01*
X109000454Y-114821776D01*
X109116869Y-114750179D01*
X109186678Y-114716021D01*
X109231670Y-114696646D01*
X109253128Y-114692499D01*
X109252332Y-114704026D01*
X109230565Y-114731672D01*
X109189549Y-114775426D01*
X109097369Y-114885902D01*
X109027736Y-115005066D01*
X108978272Y-115138218D01*
X108946603Y-115290660D01*
X108941645Y-115328510D01*
X108935680Y-115434163D01*
X108939473Y-115554285D01*
X108951957Y-115676753D01*
X108972063Y-115789445D01*
X108987369Y-115847416D01*
X109004917Y-115899475D01*
X109021429Y-115930922D01*
X109043054Y-115950043D01*
X109074238Y-115964456D01*
X109105433Y-115981102D01*
X109140566Y-116009025D01*
X109181317Y-116050302D01*
X109229368Y-116107010D01*
X109286400Y-116181227D01*
X109354094Y-116275030D01*
X109434130Y-116390496D01*
X109511432Y-116504711D01*
X109612106Y-116654172D01*
X109698696Y-116781507D01*
X109773333Y-116889567D01*
X109838146Y-116981204D01*
X109895263Y-117059269D01*
X109946814Y-117126613D01*
X109994929Y-117186088D01*
X110041737Y-117240544D01*
X110089367Y-117292832D01*
X110138318Y-117344128D01*
X110183738Y-117388721D01*
X110236880Y-117437576D01*
X110292740Y-117486495D01*
X110346312Y-117531280D01*
X110392590Y-117567736D01*
X110426569Y-117591664D01*
X110442289Y-117599026D01*
X110439270Y-117588180D01*
X110423564Y-117561121D01*
X110416739Y-117550638D01*
X110340015Y-117413636D01*
X110290860Y-117275232D01*
X110269992Y-117137825D01*
X110270844Y-117063372D01*
X110289025Y-116958947D01*
X110329227Y-116859779D01*
X110393190Y-116763341D01*
X110482650Y-116667108D01*
X110599347Y-116568553D01*
X110624269Y-116549708D01*
X110677866Y-116509190D01*
X110721317Y-116475175D01*
X110749817Y-116451506D01*
X110758712Y-116442263D01*
X110745498Y-116439755D01*
X110711845Y-116441574D01*
X110687991Y-116444309D01*
X110608678Y-116441351D01*
X110539738Y-116410676D01*
X110482780Y-116353024D01*
X110479550Y-116348388D01*
X110454048Y-116286626D01*
X110445752Y-116202512D01*
X110454768Y-116098072D01*
X110463833Y-116048195D01*
X110471552Y-116000193D01*
X110473294Y-115964232D01*
X110470036Y-115950522D01*
X110449440Y-115943767D01*
X110410060Y-115939595D01*
X110385255Y-115938943D01*
X110343181Y-115938208D01*
X110316713Y-115936332D01*
X110312053Y-115934924D01*
X110318279Y-115920787D01*
X110335036Y-115885993D01*
X110359443Y-115836470D01*
X110377175Y-115800926D01*
X110522067Y-115491802D01*
X110641952Y-115191617D01*
X110738324Y-114895729D01*
X110812676Y-114599494D01*
X110866499Y-114298269D01*
X110871320Y-114263973D01*
X110881028Y-114173979D01*
X110889241Y-114060196D01*
X110895845Y-113928583D01*
X110900725Y-113785096D01*
X110903768Y-113635692D01*
X110904857Y-113486328D01*
X110903880Y-113342963D01*
X110900722Y-113211552D01*
X110895267Y-113098053D01*
X110894057Y-113080327D01*
X110873813Y-112830946D01*
X110850926Y-112610202D01*
X110825182Y-112417053D01*
X110796365Y-112250458D01*
X110764262Y-112109375D01*
X110728657Y-111992764D01*
X110689336Y-111899582D01*
X110646085Y-111828789D01*
X110632762Y-111812280D01*
X110599694Y-111777618D01*
X110570551Y-111760881D01*
X110531883Y-111755811D01*
X110511030Y-111755646D01*
X110459021Y-111759782D01*
X110409913Y-111773375D01*
X110359358Y-111799131D01*
X110303008Y-111839754D01*
X110236514Y-111897951D01*
X110155529Y-111976427D01*
X110154449Y-111977505D01*
X110095515Y-112038118D01*
X110035844Y-112102553D01*
X109978685Y-112166938D01*
X109927284Y-112227403D01*
X109884890Y-112280074D01*
X109854751Y-112321080D01*
X109840113Y-112346550D01*
X109839865Y-112352551D01*
X109855073Y-112350429D01*
X109891642Y-112340868D01*
X109942648Y-112325730D01*
X109961269Y-112319892D01*
X110017141Y-112303267D01*
X110062551Y-112291818D01*
X110089769Y-112287428D01*
X110093205Y-112287761D01*
X110090334Y-112298250D01*
X110067983Y-112320651D01*
X110035190Y-112346903D01*
X109985233Y-112388087D01*
X109918216Y-112449748D01*
X109836283Y-112529608D01*
X109741580Y-112625387D01*
X109636250Y-112734808D01*
X109522439Y-112855590D01*
X109402291Y-112985455D01*
X109277951Y-113122124D01*
X109151565Y-113263318D01*
X109025276Y-113406758D01*
X108901229Y-113550165D01*
X108885783Y-113568214D01*
X108824857Y-113640096D01*
X108781582Y-113692719D01*
X108756398Y-113725867D01*
X108749747Y-113739324D01*
X108762069Y-113732875D01*
X108793804Y-113706304D01*
X108845395Y-113659394D01*
X108917281Y-113591931D01*
X109001853Y-113511400D01*
X109135937Y-113385056D01*
X109253211Y-113279285D01*
X109356617Y-113192379D01*
X109449099Y-113122628D01*
X109533600Y-113068322D01*
X109613063Y-113027754D01*
X109690430Y-112999213D01*
X109768645Y-112980990D01*
X109850651Y-112971377D01*
X109936400Y-112968662D01*
X109999382Y-112970669D01*
X110037857Y-112976122D01*
X110050512Y-112984175D01*
X110036033Y-112993978D01*
X109993107Y-113004683D01*
X109992377Y-113004821D01*
X109939860Y-113020810D01*
X109870353Y-113050645D01*
X109790894Y-113090583D01*
X109708521Y-113136880D01*
X109630271Y-113185794D01*
X109565188Y-113232028D01*
X109517621Y-113270312D01*
X109452583Y-113324891D01*
X109374489Y-113391867D01*
X109287755Y-113467343D01*
X109196794Y-113547421D01*
X109106023Y-113628205D01*
X109019855Y-113705797D01*
X108942707Y-113776300D01*
X108878992Y-113835816D01*
X108853802Y-113859993D01*
X108804833Y-113909344D01*
X108774805Y-113943421D01*
X108764539Y-113960959D01*
X108774851Y-113960690D01*
X108797135Y-113947681D01*
X108972741Y-113836191D01*
X109128493Y-113744754D01*
X109263973Y-113673600D01*
X109378761Y-113622958D01*
X109418735Y-113608513D01*
X109468785Y-113593564D01*
X109516031Y-113584518D01*
X109569767Y-113580420D01*
X109639283Y-113580318D01*
X109682349Y-113581451D01*
X109762151Y-113585616D01*
X109821237Y-113591976D01*
X109857969Y-113599801D01*
X109870706Y-113608360D01*
X109857810Y-113616924D01*
X109817640Y-113624764D01*
X109787250Y-113628143D01*
X109669752Y-113648598D01*
X109554420Y-113688777D01*
X109438280Y-113750404D01*
X109318356Y-113835201D01*
X109191671Y-113944893D01*
X109120093Y-114014391D01*
X109036882Y-114099110D01*
X108974115Y-114165646D01*
X108932031Y-114213668D01*
X108910865Y-114242845D01*
X108910854Y-114252846D01*
X108932235Y-114243340D01*
X108975244Y-114213997D01*
X108979521Y-114210861D01*
X109027246Y-114180267D01*
X109089570Y-114146614D01*
X109159385Y-114113032D01*
X109229583Y-114082650D01*
X109293056Y-114058596D01*
X109342696Y-114043999D01*
X109365234Y-114041078D01*
X109360371Y-114047541D01*
X109333864Y-114064528D01*
X109290601Y-114089043D01*
X109261997Y-114104355D01*
X109064235Y-114224547D01*
X108883397Y-114367530D01*
X108860411Y-114388530D01*
X108771080Y-114471585D01*
X108927410Y-114391126D01*
X109077424Y-114319982D01*
X109215468Y-114268064D01*
X109349645Y-114232603D01*
X109435775Y-114217476D01*
X109503155Y-114209140D01*
X109559615Y-114206483D01*
X109617201Y-114209774D01*
X109687957Y-114219276D01*
X109715171Y-114223643D01*
X109783470Y-114236255D01*
X109844614Y-114250060D01*
X109890024Y-114262997D01*
X109906196Y-114269512D01*
X109923568Y-114279678D01*
X109925589Y-114285888D01*
X109908418Y-114289059D01*
X109868213Y-114290112D01*
X109820334Y-114290064D01*
X109725123Y-114294413D01*
X109637831Y-114307186D01*
X109604825Y-114315285D01*
X109477273Y-114364218D01*
X109346219Y-114436361D01*
X109216189Y-114527450D01*
X109091710Y-114633222D01*
X108977310Y-114749413D01*
X108877515Y-114871760D01*
X108796852Y-114995999D01*
X108739848Y-115117867D01*
X108733550Y-115135885D01*
X108715993Y-115194425D01*
X108708145Y-115232600D01*
X107625725Y-115232600D01*
X107636750Y-115194512D01*
X107724501Y-114919999D01*
X107825515Y-114648442D01*
X107941390Y-114376613D01*
X108073719Y-114101286D01*
X108224099Y-113819232D01*
X108394125Y-113527225D01*
X108585394Y-113222038D01*
X108693156Y-113057994D01*
X108813437Y-112881937D01*
X108942159Y-112701593D01*
X109076854Y-112519970D01*
X109215055Y-112340077D01*
X109354292Y-112164921D01*
X109492099Y-111997509D01*
X109626007Y-111840851D01*
X109753549Y-111697953D01*
X109872256Y-111571823D01*
X109979661Y-111465471D01*
X110057420Y-111395254D01*
X110174035Y-111306558D01*
X110282618Y-111246448D01*
X110383368Y-111214892D01*
X110476487Y-111211861D01*
X110562175Y-111237322D01*
G37*
M02*
