M48
; DRILL file {KiCad 8.0.3} date 2024-07-07T19:52:21-0700
; FORMAT={-:-/ absolute / inch / decimal}
; #@! TF.CreationDate,2024-07-07T19:52:21-07:00
; #@! TF.GenerationSoftware,Kicad,Pcbnew,8.0.3
; #@! TF.FileFunction,Plated,1,2,PTH
FMAT,2
INCH
; #@! TA.AperFunction,Plated,PTH,ComponentDrill
T1C0.0299
; #@! TA.AperFunction,Plated,PTH,ComponentDrill
T2C0.1260
%
G90
G05
T1
X3.7203Y-2.7037
X3.7626Y-3.0637
X3.7626Y-3.1637
X3.7626Y-3.2637
X3.7626Y-3.6377
X3.7626Y-3.7377
X3.7626Y-3.8377
X3.7626Y-4.2127
X3.7626Y-4.3127
X3.7626Y-4.4127
X3.7626Y-4.7877
X3.7626Y-4.8877
X3.7626Y-4.9877
X3.7703Y-2.6037
X3.8203Y-2.7037
X3.8626Y-3.0137
X3.8626Y-3.1137
X3.8626Y-3.2137
X3.8626Y-3.5877
X3.8626Y-3.6877
X3.8626Y-3.7877
X3.8626Y-4.1627
X3.8626Y-4.2627
X3.8626Y-4.3627
X3.8626Y-4.7377
X3.8626Y-4.8377
X3.8626Y-4.9377
X3.8703Y-2.6037
X3.9203Y-2.7037
X3.9703Y-2.6037
X4.0203Y-2.7037
X4.0703Y-2.6037
T2
X3.4267Y-2.2879
X3.4267Y-5.2829
X4.0748Y-3.7854
X4.3617Y-2.2879
X4.3617Y-5.2829
M30
