G04 #@! TF.GenerationSoftware,KiCad,Pcbnew,8.0.3*
G04 #@! TF.CreationDate,2024-07-07T19:52:19-07:00*
G04 #@! TF.ProjectId,T568A_to_RJ11_adapter,54353638-415f-4746-9f5f-524a31315f61,1*
G04 #@! TF.SameCoordinates,Original*
G04 #@! TF.FileFunction,Copper,L2,Bot*
G04 #@! TF.FilePolarity,Positive*
%FSLAX46Y46*%
G04 Gerber Fmt 4.6, Leading zero omitted, Abs format (unit mm)*
G04 Created by KiCad (PCBNEW 8.0.3) date 2024-07-07 19:52:19*
%MOMM*%
%LPD*%
G01*
G04 APERTURE LIST*
G04 Aperture macros list*
%AMRoundRect*
0 Rectangle with rounded corners*
0 $1 Rounding radius*
0 $2 $3 $4 $5 $6 $7 $8 $9 X,Y pos of 4 corners*
0 Add a 4 corners polygon primitive as box body*
4,1,4,$2,$3,$4,$5,$6,$7,$8,$9,$2,$3,0*
0 Add four circle primitives for the rounded corners*
1,1,$1+$1,$2,$3*
1,1,$1+$1,$4,$5*
1,1,$1+$1,$6,$7*
1,1,$1+$1,$8,$9*
0 Add four rect primitives between the rounded corners*
20,1,$1+$1,$2,$3,$4,$5,0*
20,1,$1+$1,$4,$5,$6,$7,0*
20,1,$1+$1,$6,$7,$8,$9,0*
20,1,$1+$1,$8,$9,$2,$3,0*%
G04 Aperture macros list end*
G04 #@! TA.AperFunction,ComponentPad*
%ADD10RoundRect,0.250000X-0.510000X0.510000X-0.510000X-0.510000X0.510000X-0.510000X0.510000X0.510000X0*%
G04 #@! TD*
G04 #@! TA.AperFunction,ComponentPad*
%ADD11C,1.520000*%
G04 #@! TD*
G04 #@! TA.AperFunction,ComponentPad*
%ADD12C,6.400000*%
G04 #@! TD*
G04 #@! TA.AperFunction,ComponentPad*
%ADD13R,1.500000X1.500000*%
G04 #@! TD*
G04 #@! TA.AperFunction,ComponentPad*
%ADD14C,1.500000*%
G04 #@! TD*
G04 #@! TA.AperFunction,Conductor*
%ADD15C,0.250000*%
G04 #@! TD*
G04 APERTURE END LIST*
D10*
X98110000Y-105733000D03*
D11*
X95570000Y-107003000D03*
X98110000Y-108273000D03*
X95570000Y-109543000D03*
X98110000Y-110813000D03*
X95570000Y-112083000D03*
D10*
X98110000Y-120338000D03*
D11*
X95570000Y-121608000D03*
X98110000Y-122878000D03*
X95570000Y-124148000D03*
X98110000Y-125418000D03*
X95570000Y-126688000D03*
D12*
X110787000Y-58113000D03*
X87038000Y-134186000D03*
X110787000Y-134186000D03*
D10*
X98110000Y-76547000D03*
D11*
X95570000Y-77817000D03*
X98110000Y-79087000D03*
X95570000Y-80357000D03*
X98110000Y-81627000D03*
X95570000Y-82897000D03*
D10*
X98110000Y-91128000D03*
D11*
X95570000Y-92398000D03*
X98110000Y-93668000D03*
X95570000Y-94938000D03*
X98110000Y-96208000D03*
X95570000Y-97478000D03*
D13*
X103385500Y-66134000D03*
D14*
X102115500Y-68674000D03*
X100845500Y-66134000D03*
X99575500Y-68674000D03*
X98305500Y-66134000D03*
X97035500Y-68674000D03*
X95765500Y-66134000D03*
X94495500Y-68674000D03*
D12*
X103500000Y-96149500D03*
X87038000Y-58113000D03*
D15*
X98110000Y-123495000D02*
X96182000Y-125423000D01*
X92118000Y-71051500D02*
X94495500Y-68674000D01*
X94658000Y-125423000D02*
X92118000Y-122883000D01*
X96182000Y-125423000D02*
X94658000Y-125423000D01*
X98110000Y-122878000D02*
X98110000Y-123495000D01*
X92118000Y-122883000D02*
X92118000Y-71051500D01*
X102115500Y-68674000D02*
X103421000Y-69979500D01*
X103421000Y-69979500D02*
X103421000Y-89228000D01*
X103421000Y-89228000D02*
X108247000Y-94054000D01*
X99743000Y-108273000D02*
X98110000Y-108273000D01*
X108247000Y-99769000D02*
X99743000Y-108273000D01*
X108247000Y-94054000D02*
X108247000Y-99769000D01*
X96817000Y-79110000D02*
X95570000Y-80357000D01*
X98305500Y-71610500D02*
X96817000Y-73099000D01*
X96817000Y-73099000D02*
X96817000Y-79110000D01*
X98305500Y-66134000D02*
X98305500Y-71610500D01*
X99575500Y-77621500D02*
X98110000Y-79087000D01*
X99575500Y-68674000D02*
X99575500Y-77621500D01*
X96083000Y-96213000D02*
X98110000Y-94186000D01*
X98110000Y-94186000D02*
X98110000Y-93668000D01*
X94023000Y-95578000D02*
X94658000Y-96213000D01*
X94023000Y-73353000D02*
X94023000Y-95578000D01*
X97035500Y-68674000D02*
X97035500Y-70340500D01*
X94658000Y-96213000D02*
X96083000Y-96213000D01*
X97035500Y-70340500D02*
X94023000Y-73353000D01*
X100845500Y-91549500D02*
X99992000Y-92403000D01*
X95570000Y-94285000D02*
X95570000Y-94938000D01*
X97452000Y-92403000D02*
X95570000Y-94285000D01*
X100845500Y-66134000D02*
X100845500Y-91549500D01*
X99992000Y-92403000D02*
X97452000Y-92403000D01*
X109390000Y-93800000D02*
X109390000Y-100023000D01*
X104437000Y-69924000D02*
X104437000Y-88847000D01*
X103385500Y-66134000D02*
X103385500Y-68872500D01*
X109390000Y-100023000D02*
X99870000Y-109543000D01*
X103385500Y-68872500D02*
X104437000Y-69924000D01*
X104437000Y-88847000D02*
X109390000Y-93800000D01*
X99870000Y-109543000D02*
X95570000Y-109543000D01*
X95765500Y-66134000D02*
X95765500Y-70340500D01*
X95765500Y-70340500D02*
X93007000Y-73099000D01*
X93007000Y-122248000D02*
X94907000Y-124148000D01*
X94907000Y-124148000D02*
X95570000Y-124148000D01*
X93007000Y-73099000D02*
X93007000Y-122248000D01*
M02*
