G04 #@! TF.GenerationSoftware,KiCad,Pcbnew,8.0.3*
G04 #@! TF.CreationDate,2024-07-07T19:52:19-07:00*
G04 #@! TF.ProjectId,T568A_to_RJ11_adapter,54353638-415f-4746-9f5f-524a31315f61,1*
G04 #@! TF.SameCoordinates,Original*
G04 #@! TF.FileFunction,Soldermask,Top*
G04 #@! TF.FilePolarity,Negative*
%FSLAX46Y46*%
G04 Gerber Fmt 4.6, Leading zero omitted, Abs format (unit mm)*
G04 Created by KiCad (PCBNEW 8.0.3) date 2024-07-07 19:52:19*
%MOMM*%
%LPD*%
G01*
G04 APERTURE LIST*
G04 Aperture macros list*
%AMRoundRect*
0 Rectangle with rounded corners*
0 $1 Rounding radius*
0 $2 $3 $4 $5 $6 $7 $8 $9 X,Y pos of 4 corners*
0 Add a 4 corners polygon primitive as box body*
4,1,4,$2,$3,$4,$5,$6,$7,$8,$9,$2,$3,0*
0 Add four circle primitives for the rounded corners*
1,1,$1+$1,$2,$3*
1,1,$1+$1,$4,$5*
1,1,$1+$1,$6,$7*
1,1,$1+$1,$8,$9*
0 Add four rect primitives between the rounded corners*
20,1,$1+$1,$2,$3,$4,$5,0*
20,1,$1+$1,$4,$5,$6,$7,0*
20,1,$1+$1,$6,$7,$8,$9,0*
20,1,$1+$1,$8,$9,$2,$3,0*%
G04 Aperture macros list end*
%ADD10C,3.250000*%
%ADD11RoundRect,0.250000X-0.510000X0.510000X-0.510000X-0.510000X0.510000X-0.510000X0.510000X0.510000X0*%
%ADD12C,1.520000*%
%ADD13C,6.400000*%
%ADD14C,3.200000*%
%ADD15R,1.500000X1.500000*%
%ADD16C,1.500000*%
G04 APERTURE END LIST*
D10*
X89220000Y-103833000D03*
X89220000Y-113993000D03*
D11*
X98110000Y-105733000D03*
D12*
X95570000Y-107003000D03*
X98110000Y-108273000D03*
X95570000Y-109543000D03*
X98110000Y-110813000D03*
X95570000Y-112083000D03*
D10*
X89220000Y-118438000D03*
X89220000Y-128598000D03*
D11*
X98110000Y-120338000D03*
D12*
X95570000Y-121608000D03*
X98110000Y-122878000D03*
X95570000Y-124148000D03*
X98110000Y-125418000D03*
X95570000Y-126688000D03*
D13*
X110787000Y-58113000D03*
X87038000Y-134186000D03*
X110787000Y-134186000D03*
D10*
X89220000Y-74647000D03*
X89220000Y-84807000D03*
D11*
X98110000Y-76547000D03*
D12*
X95570000Y-77817000D03*
X98110000Y-79087000D03*
X95570000Y-80357000D03*
X98110000Y-81627000D03*
X95570000Y-82897000D03*
D10*
X89220000Y-89228000D03*
X89220000Y-99388000D03*
D11*
X98110000Y-91128000D03*
D12*
X95570000Y-92398000D03*
X98110000Y-93668000D03*
X95570000Y-94938000D03*
X98110000Y-96208000D03*
X95570000Y-97478000D03*
D14*
X104655500Y-59784000D03*
X93225500Y-59784000D03*
D15*
X103385500Y-66134000D03*
D16*
X102115500Y-68674000D03*
X100845500Y-66134000D03*
X99575500Y-68674000D03*
X98305500Y-66134000D03*
X97035500Y-68674000D03*
X95765500Y-66134000D03*
X94495500Y-68674000D03*
D13*
X103500000Y-96149500D03*
X87038000Y-58113000D03*
M02*
